<svg width="24" height="24" viewBox="0 0 24 24" fill="none" xmlns="http://www.w3.org/2000/svg">
<path d="M19 13V8C19 6.14348 18.2625 4.36301 16.9497 3.05025C15.637 1.7375 13.8565 1 12 1C10.1435 1 8.36301 1.7375 7.05025 3.05025C5.7375 4.36301 5 6.14348 5 8V13C4.97026 15.47 4.27968 17.8871 3 20H21C19.7203 17.8871 19.0297 15.47 19 13Z" stroke="white" stroke-width="2" stroke-miterlimit="10" stroke-linecap="square"/>
<path d="M9.17401 22C9.3818 22.5832 9.76496 23.0879 10.2709 23.4447C10.7769 23.8016 11.3809 23.9932 12 23.9932C12.6192 23.9932 13.2231 23.8016 13.7291 23.4447C14.2351 23.0879 14.6182 22.5832 14.826 22H9.17401Z" fill="white"/>
</svg>
