<svg width="60" height="60" viewBox="0 0 60 60" fill="none" xmlns="http://www.w3.org/2000/svg">
<path d="M30.0095 42.6047H29.919L29.919 19.1095H30.2012C36.4667 19.1095 41.5547 24.1964 41.5547 30.4631V31.0595C41.5547 37.4309 36.3821 42.6047 30.0095 42.6047Z" fill="white"/>
<path d="M23.2071 29.294C25.5175 29.294 27.3905 27.4211 27.3905 25.1107C27.3905 22.8003 25.5175 20.9274 23.2071 20.9274C20.8967 20.9274 19.0238 22.8003 19.0238 25.1107C19.0238 27.4211 20.8967 29.294 23.2071 29.294Z" fill="white"/>
<path d="M24.5655 30.1821L19.0238 35.6333L24.4024 41.1012L26.1095 39.4214L22.2762 35.6417L26.1095 31.8714L24.5655 30.1821Z" fill="white"/>
</svg>
