<svg width="79" height="84" viewBox="0 0 79 84" fill="none" xmlns="http://www.w3.org/2000/svg">
<path d="M38.5191 83.0165H38.2018L38.2018 -2.28882e-05H39.1911C61.1597 -2.28882e-05 79 17.9737 79 40.1159V42.2233C79 64.7357 60.8633 83.0165 38.5191 83.0165Z" fill="white"/>
<path d="M14.668 35.9852C22.7689 35.9852 29.336 29.3675 29.336 21.2041C29.336 13.0407 22.7689 6.42297 14.668 6.42297C6.56708 6.42297 0 13.0407 0 21.2041C0 29.3675 6.56708 35.9852 14.668 35.9852Z" fill="#E57225"/>
<path d="M19.4307 39.1232L0 58.384L18.8588 77.7038L24.8446 71.7687L11.4038 58.4135L24.8446 45.092L19.4307 39.1232Z" fill="white"/>
</svg>
