<svg width="15" height="15" viewBox="0 0 15 15" fill="none" xmlns="http://www.w3.org/2000/svg">
<rect width="15" height="15" rx="1.25" fill="#0E336A"/>
<path d="M4.63235 12.5C4.38971 12.5 4.18191 12.4143 4.00897 12.2428C3.83603 12.0713 3.74971 11.8653 3.75 11.625V5.5H4.63235V11.625H9.48529V12.5H4.63235ZM6.39706 10.75C6.15441 10.75 5.94662 10.6643 5.77368 10.4928C5.60074 10.3213 5.51441 10.1153 5.51471 9.875V4.625C5.51471 4.38438 5.60118 4.17831 5.77412 4.00681C5.94706 3.83531 6.15471 3.74971 6.39706 3.75H10.3676C10.6103 3.75 10.8181 3.83575 10.991 4.00725C11.164 4.17875 11.2503 4.38467 11.25 4.625V9.875C11.25 10.1156 11.1635 10.3217 10.9906 10.4932C10.8176 10.6647 10.61 10.7503 10.3676 10.75H6.39706ZM6.39706 9.875H10.3676V4.625H6.39706V9.875Z" fill="#ECF4FF"/>
</svg>
