<svg width="18" height="14" viewBox="0 0 18 14" fill="none" xmlns="http://www.w3.org/2000/svg">
<path d="M0.5625 4L9 8L17.4375 4" stroke="white" stroke-linecap="round" stroke-linejoin="round"/>
<path d="M15.75 13.5H2.25C1.80245 13.5 1.37322 13.342 1.05676 13.0607C0.74029 12.7794 0.5625 12.3978 0.5625 12V2C0.5625 1.60218 0.74029 1.22064 1.05676 0.93934C1.37322 0.658035 1.80245 0.5 2.25 0.5H15.75C16.1976 0.5 16.6268 0.658035 16.9432 0.93934C17.2597 1.22064 17.4375 1.60218 17.4375 2V12C17.4375 12.3978 17.2597 12.7794 16.9432 13.0607C16.6268 13.342 16.1976 13.5 15.75 13.5Z" stroke="white" stroke-linecap="round" stroke-linejoin="round"/>
</svg>
