<svg width="32" height="32" viewBox="0 0 32 32" fill="none" xmlns="http://www.w3.org/2000/svg">
<path d="M16 32C24.8366 32 32 24.8366 32 16C32 7.16344 24.8366 0 16 0C7.16344 0 0 7.16344 0 16C0 24.8366 7.16344 32 16 32Z" fill="#AFB2B5"/>
<path d="M20.0544 14.4863L19.7891 16.7137C19.7776 16.8171 19.7283 16.9127 19.6505 16.9819C19.5728 17.0511 19.4721 17.0891 19.368 17.0884H17.0523V23.6989C17.0528 23.7779 17.0221 23.8538 16.9669 23.9102C16.9117 23.9666 16.8364 23.9989 16.7575 24H14.3975C14.3583 23.9995 14.3195 23.9912 14.2834 23.9756C14.2474 23.9601 14.2147 23.9376 14.1874 23.9095C14.16 23.8813 14.1384 23.8481 14.1239 23.8116C14.1094 23.7751 14.1022 23.7361 14.1028 23.6968L14.1154 17.0884H12.3617C12.2501 17.0884 12.143 17.0441 12.064 16.9651C11.985 16.8861 11.9407 16.779 11.9407 16.6674V14.44C11.9407 14.3283 11.985 14.2212 12.064 14.1423C12.143 14.0633 12.2501 14.0189 12.3617 14.0189H14.1049V11.8589C14.1049 9.36 15.5912 8 17.768 8H19.5512C19.6629 8 19.77 8.04436 19.8489 8.12332C19.9279 8.20229 19.9723 8.30938 19.9723 8.42105V10.2968C19.9723 10.4085 19.9279 10.5156 19.8489 10.5946C19.77 10.6735 19.6629 10.7179 19.5512 10.7179H18.4586C17.2754 10.7368 17.0523 11.3032 17.0523 12.1495V14.0126H19.6438C19.703 14.0136 19.7612 14.0271 19.8148 14.0521C19.8684 14.0771 19.9161 14.1132 19.9548 14.1579C19.9935 14.2025 20.0224 14.2549 20.0396 14.3115C20.0567 14.3681 20.0618 14.4276 20.0544 14.4863Z" fill="white"/>
</svg>
