<svg width="27" height="27" viewBox="0 0 27 27" fill="none" xmlns="http://www.w3.org/2000/svg">
<rect width="26.6667" height="26.6667" rx="13.3333" fill="#AFB2B5"/>
<path fill-rule="evenodd" clip-rule="evenodd" d="M21.56 13.5303C21.56 12.9157 21.5048 12.3248 21.4024 11.7576H13.24V15.11H17.9042C17.7033 16.1933 17.0927 17.1112 16.1748 17.7257V19.9003H18.9757C20.6145 18.3915 21.56 16.1697 21.56 13.5303Z" fill="white"/>
<path fill-rule="evenodd" clip-rule="evenodd" d="M13.2401 22C15.5801 22 17.5419 21.224 18.9758 19.9003L16.1749 17.7258C15.3989 18.2458 14.4061 18.5531 13.2401 18.5531C10.9828 18.5531 9.07221 17.0285 8.39069 14.98H5.49524V17.2255C6.9213 20.0579 9.85221 22 13.2401 22Z" fill="white"/>
<path fill-rule="evenodd" clip-rule="evenodd" d="M8.39064 14.98C8.2173 14.46 8.11882 13.9046 8.11882 13.3333C8.11882 12.7621 8.2173 12.2067 8.39064 11.6867V9.44122H5.49518C4.90821 10.6112 4.57336 11.9349 4.57336 13.3333C4.57336 14.7318 4.90821 16.0555 5.49518 17.2255L8.39064 14.98Z" fill="white"/>
<path fill-rule="evenodd" clip-rule="evenodd" d="M13.2401 8.11366C14.5125 8.11366 15.6549 8.55093 16.5531 9.40972L19.0389 6.92396C17.538 5.52547 15.5761 4.66669 13.2401 4.66669C9.85221 4.66669 6.9213 6.60881 5.49524 9.44123L8.39069 11.6867C9.07221 9.6382 10.9828 8.11366 13.2401 8.11366Z" fill="white"/>
</svg>
