<svg width="60" height="60" viewBox="0 0 60 60" fill="none" xmlns="http://www.w3.org/2000/svg">
<path d="M32.355 47.25H32.25V18.75H32.5773C39.8467 18.75 45.75 24.9205 45.75 32.522V33.2455C45.75 40.9741 39.7486 47.25 32.355 47.25Z" fill="white"/>
<path d="M24 31.5C26.8995 31.5 29.25 29.1495 29.25 26.25C29.25 23.3505 26.8995 21 24 21C21.1005 21 18.75 23.3505 18.75 26.25C18.75 29.1495 21.1005 31.5 24 31.5Z" fill="white"/>
<path d="M25.7888 32.25L18.75 38.6153L25.5817 45L27.75 43.0386L22.881 38.625L27.75 34.2226L25.7888 32.25Z" fill="white"/>
</svg>
