<svg width="80" height="84" viewBox="0 0 80 84" fill="none" xmlns="http://www.w3.org/2000/svg">
<path d="M39.5076 83.0165H39.1903L39.1903 7.62939e-06H40.1796C62.1482 7.62939e-06 79.9885 17.9737 79.9885 40.116V42.2233C79.9885 64.7357 61.8518 83.0165 39.5076 83.0165Z" fill="#151515"/>
<path d="M15.6565 35.9853C23.7574 35.9853 30.3245 29.3675 30.3245 21.2041C30.3245 13.0408 23.7574 6.42303 15.6565 6.42303C7.5556 6.42303 0.988525 13.0408 0.988525 21.2041C0.988525 29.3675 7.5556 35.9853 15.6565 35.9853Z" fill="#151515"/>
<path d="M20.4192 39.1232L0.988525 58.3841L19.8474 77.7038L25.8331 71.7687L12.3923 58.4135L25.8331 45.092L20.4192 39.1232Z" fill="#151515"/>
</svg>
