<svg width="337" height="293" viewBox="0 0 337 293" fill="none" xmlns="http://www.w3.org/2000/svg">
<g clip-path="url(#clip0_371_534)">
<path d="M155.249 272.739L142.826 274.645L155.803 268.512C156.855 256.571 154.059 243.76 154.059 243.76C154.059 243.76 127.257 248.42 119.003 260.696C110.75 272.973 115.168 282.165 124.172 288.217C133.175 294.269 143.356 294.888 151.609 282.611C153.446 279.879 154.586 276.437 155.249 272.739Z" fill="#F2F2F2"/>
<path d="M140.595 273.701L140.189 274.306C135.424 281.316 130.548 286.006 125.622 288.306C125.551 288.341 125.479 288.371 125.407 288.405L125.254 288.071L125.11 287.749C130.498 285.311 135.377 280.027 139.534 273.914C139.67 273.718 139.808 273.52 139.94 273.317C141.677 270.714 143.285 267.98 144.746 265.256C144.861 265.046 144.975 264.831 145.089 264.617C146.999 261.012 148.652 257.452 150.01 254.307C150.107 254.085 150.201 253.861 150.293 253.64C152.569 248.307 153.951 244.264 154.251 243.366C154.29 243.257 154.309 243.196 154.314 243.182L154.653 243.292L154.658 243.291L155 243.403C154.995 243.418 154.931 243.622 154.801 243.996C154.324 245.398 152.992 249.178 150.955 253.976C150.862 254.192 150.768 254.416 150.671 254.638C149.572 257.191 148.284 260.006 146.825 262.887C146.46 263.612 146.092 264.321 145.721 265.015C145.61 265.232 145.496 265.447 145.381 265.657C143.802 268.601 142.207 271.283 140.595 273.701Z" fill="white"/>
<path d="M150.955 253.976C150.736 253.868 150.514 253.758 150.293 253.64C149.693 253.321 149.109 252.971 148.545 252.591C146.138 250.978 144.123 248.845 142.649 246.35C142.417 246.424 142.184 246.498 141.947 246.573C143.481 249.222 145.6 251.486 148.142 253.191C148.745 253.595 149.368 253.968 150.01 254.307C150.228 254.423 150.45 254.533 150.671 254.638C152.488 255.514 154.427 256.109 156.422 256.403C156.404 256.151 156.387 255.905 156.371 255.664C154.492 255.371 152.667 254.802 150.955 253.976Z" fill="white"/>
<path d="M145.721 265.015C145.506 264.888 145.295 264.756 145.089 264.617C145.024 264.577 144.958 264.533 144.895 264.491C142.289 262.739 140.145 260.383 138.646 257.624C137.147 254.865 136.338 251.784 136.287 248.645C136.048 248.741 135.809 248.837 135.572 248.939C135.669 252.146 136.528 255.284 138.08 258.092C139.631 260.901 141.829 263.3 144.492 265.09C144.576 265.146 144.66 265.203 144.746 265.256C144.958 265.394 145.168 265.527 145.381 265.657C148.69 267.643 152.501 268.634 156.359 268.512C156.382 268.271 156.405 268.03 156.425 267.786C152.663 267.924 148.943 266.961 145.721 265.015Z" fill="white"/>
<path d="M140.596 273.701C140.374 273.578 140.156 273.449 139.94 273.317C139.709 273.175 139.481 273.03 139.256 272.879C135.757 270.521 133.115 267.093 131.727 263.109C130.339 259.125 130.28 254.798 131.557 250.777C131.259 250.929 130.963 251.078 130.671 251.234C129.523 255.331 129.696 259.685 131.165 263.679C132.634 267.672 135.324 271.101 138.853 273.478C139.078 273.629 139.305 273.777 139.534 273.914C139.751 274.051 139.969 274.18 140.189 274.306C144.648 276.822 149.896 277.549 154.871 276.341C154.957 276.077 155.032 275.81 155.11 275.54C150.216 276.838 145.01 276.178 140.596 273.701Z" fill="white"/>
<path d="M47.0517 99.7325C44.2787 99.7325 41.5679 98.9104 39.2623 97.37C36.9566 95.8296 35.1595 93.6401 34.0983 91.0786C33.0371 88.517 32.7594 85.6982 33.3004 82.9789C33.8413 80.2595 35.1766 77.7615 37.1373 75.8009C39.0981 73.8403 41.5963 72.505 44.316 71.964C47.0357 71.423 49.8547 71.7006 52.4167 72.7615C54.9786 73.8225 57.1684 75.6192 58.7091 77.9246C60.2498 80.2299 61.0722 82.9402 61.0723 85.7129C61.0682 89.4298 59.5897 92.9932 56.9612 95.6215C54.3328 98.2497 50.769 99.7282 47.0517 99.7325ZM47.0517 73.0058C44.5382 73.0058 42.0811 73.7511 39.9912 75.1474C37.9013 76.5436 36.2724 78.5282 35.3105 80.8501C34.3486 83.172 34.0969 85.727 34.5873 88.1919C35.0777 90.6568 36.2881 92.921 38.0654 94.6981C39.8427 96.4752 42.1071 97.6854 44.5724 98.1757C47.0376 98.666 49.5928 98.4144 51.915 97.4527C54.2372 96.4909 56.222 94.8622 57.6184 92.7725C59.0149 90.6829 59.7602 88.2261 59.7602 85.7129C59.7559 82.3442 58.4155 79.1148 56.0331 76.7329C53.6507 74.3511 50.4207 73.0112 47.0517 73.0072V73.0058Z" fill="#F2F2F2"/>
<path d="M156.813 100.27C153.438 100.274 150.167 99.1081 147.556 96.9706C144.945 94.833 143.157 91.8562 142.496 88.5477C141.834 85.2392 142.341 81.8038 143.93 78.8272C145.519 75.8506 148.09 73.517 151.207 72.2243C154.324 70.9317 157.793 70.7599 161.022 71.7383C164.252 72.7168 167.041 74.7849 168.916 77.59C170.791 80.3951 171.635 83.7636 171.304 87.1213C170.973 90.4789 169.488 93.6178 167.101 96.0028C164.372 98.731 160.672 100.266 156.813 100.27ZM156.812 72.2319C154.148 72.2341 151.545 73.0259 149.331 74.507C147.117 75.9881 145.392 78.0921 144.374 80.5532C143.356 83.0143 143.09 85.722 143.61 88.3341C144.13 90.9461 145.413 93.3454 147.297 95.2286C149.18 97.1119 151.58 98.3946 154.192 98.9146C156.805 99.4347 159.513 99.1688 161.974 98.1505C164.435 97.1322 166.54 95.4072 168.021 93.1935C169.502 90.9799 170.294 88.3769 170.296 85.7135C170.292 82.1389 168.87 78.7117 166.342 76.1842C163.814 73.6566 160.387 72.2352 156.812 72.2319Z" fill="#CCCCCC"/>
<path d="M156.813 79.8521C155.655 79.853 154.524 80.1971 153.561 80.8409C152.599 81.4847 151.849 82.3993 151.406 83.4692C150.964 84.539 150.848 85.716 151.074 86.8516C151.3 87.9871 151.858 89.03 152.677 89.8487C153.496 90.6674 154.539 91.225 155.674 91.4511C156.81 91.6772 157.987 91.5617 159.057 91.119C160.127 90.6764 161.042 89.9265 161.686 88.9643C162.33 88.002 162.674 86.8704 162.675 85.7127C162.675 84.943 162.523 84.1809 162.229 83.4698C161.934 82.7587 161.502 82.1126 160.958 81.5684C160.414 81.0242 159.768 80.5925 159.056 80.298C158.345 80.0035 157.583 79.852 156.813 79.8521Z" fill="#CACACA"/>
<path d="M261.181 79.854C260.023 79.8549 258.891 80.199 257.929 80.8429C256.966 81.4867 256.216 82.4013 255.774 83.4711C255.331 84.541 255.215 85.718 255.442 86.8535C255.668 87.989 256.225 89.032 257.044 89.8507C257.863 90.6694 258.906 91.227 260.042 91.4531C261.177 91.6792 262.355 91.5636 263.425 91.121C264.494 90.6783 265.409 89.9285 266.053 88.9662C266.697 88.0039 267.041 86.8724 267.042 85.7146C267.042 84.945 266.891 84.1828 266.596 83.4717C266.302 82.7607 265.87 82.1146 265.326 81.5703C264.781 81.0261 264.135 80.5944 263.424 80.2999C262.713 80.0054 261.951 79.8539 261.181 79.854Z" fill="#CACACA"/>
<path d="M238.202 0C237.612 0.000918238 237.046 0.235978 236.629 0.653565C236.212 1.07115 235.978 1.63713 235.978 2.22723C235.978 2.81733 236.212 3.3833 236.629 3.80089C237.046 4.21848 237.612 4.45354 238.202 4.45446H283.388C283.978 4.45354 284.544 4.21848 284.961 3.80089C285.378 3.3833 285.612 2.81733 285.612 2.22723C285.612 1.63713 285.378 1.07115 284.961 0.653565C284.544 0.235978 283.978 0.000918238 283.388 0H238.202Z" fill="#6C63FF"/>
<path d="M238.202 13.1221C237.611 13.1221 237.045 13.3567 236.627 13.7744C236.209 14.1921 235.975 14.7586 235.975 15.3493C235.975 15.94 236.209 16.5065 236.627 16.9242C237.045 17.3419 237.611 17.5765 238.202 17.5765H283.388C283.978 17.5756 284.544 17.3405 284.961 16.923C285.378 16.5054 285.612 15.9394 285.612 15.3493C285.612 14.7592 285.378 14.1932 284.961 13.7756C284.544 13.358 283.978 13.123 283.388 13.1221H238.202Z" fill="#6C63FF"/>
<path d="M238.202 26.3833C237.611 26.3833 237.045 26.618 236.627 27.0356C236.209 27.4533 235.975 28.0198 235.975 28.6105C235.975 29.2012 236.209 29.7677 236.627 30.1854C237.045 30.6031 237.611 30.8378 238.202 30.8378H283.388C283.978 30.8368 284.544 30.6018 284.961 30.1842C285.378 29.7666 285.612 29.2006 285.612 28.6105C285.612 28.0204 285.378 27.4545 284.961 27.0369C284.544 26.6193 283.978 26.3842 283.388 26.3833H238.202Z" fill="#6C63FF"/>
<path d="M79.0673 162.213C79.5651 161.596 79.9216 160.877 80.1117 160.107C80.3017 159.338 80.3207 158.536 80.1672 157.758C80.0137 156.98 79.6915 156.245 79.2233 155.605C78.7551 154.966 78.1523 154.436 77.4574 154.054L80.6864 135.055L71.5194 139.09L69.8585 156.513C69.2945 157.723 69.194 159.098 69.576 160.377C69.958 161.656 70.796 162.75 71.9311 163.453C73.0662 164.155 74.4196 164.417 75.7348 164.189C77.0501 163.96 78.2358 163.257 79.0673 162.213Z" fill="#FFB6B6"/>
<path d="M67.8247 151.263L66.1533 103.749L66.1522 103.716L75.125 60.1061C75.4267 58.6689 76.1834 57.367 77.283 56.3935C78.3827 55.4199 79.7667 54.8265 81.2301 54.7011C82.2726 54.6159 83.3207 54.7723 84.2928 55.1583C85.2649 55.5442 86.1348 56.1492 86.8349 56.9263C87.535 57.7033 88.0462 58.6314 88.329 59.6383C88.6117 60.6452 88.6583 61.7037 88.465 62.7315L81.5009 99.7495L81.3528 151.569L67.8247 151.263Z" fill="#E4E4E4"/>
<path d="M112.212 285.696L118.824 285.696L121.971 260.193L112.211 260.194L112.212 285.696Z" fill="#FFB6B6"/>
<path d="M110.526 283.537L123.548 283.537H123.548C125.749 283.537 127.86 284.411 129.416 285.967C130.973 287.523 131.847 289.634 131.847 291.835V292.104L110.526 292.105L110.526 283.537Z" fill="#2F2E41"/>
<path d="M83.6264 285.696L90.2384 285.696L93.3845 260.193L83.6248 260.194L83.6264 285.696Z" fill="#FFB6B6"/>
<path d="M81.9393 283.537L94.9617 283.537H94.9622C97.1631 283.537 99.2739 284.411 100.83 285.967C102.387 287.523 103.261 289.634 103.261 291.835V292.104L81.9397 292.105L81.9393 283.537Z" fill="#2F2E41"/>
<path d="M120.132 107.766L122.656 113.177L130.235 183.653L122.788 277.21L109.623 277.642L111.897 191.203L95.5978 156.16L94.6375 279.108H83.1219L72.2411 155.73C72.2411 155.73 68.4891 121.402 82.1026 107.766H120.132Z" fill="#2F2E41"/>
<path d="M82.0675 108.033L81.8683 108.007L75.238 66.6869C74.814 64.068 75.281 61.3825 76.5643 59.0603C77.8475 56.7382 79.8728 54.9136 82.316 53.8786L89.1698 50.9641L110.593 50.7729L119.097 55.8465C122.362 57.793 124.986 60.652 126.646 64.0714C128.306 67.4908 128.93 71.3211 128.439 75.0903L123.457 113.48L82.0675 108.033Z" fill="#E4E4E4"/>
<path d="M122.569 166.215C122.063 165.605 121.697 164.891 121.496 164.124C121.296 163.357 121.266 162.555 121.409 161.775C121.553 160.995 121.865 160.256 122.324 159.61C122.784 158.964 123.38 158.427 124.069 158.036L120.586 139.082L129.807 142.993L131.701 160.393C132.281 161.595 132.4 162.968 132.035 164.252C131.67 165.536 130.847 166.642 129.721 167.36C128.595 168.077 127.246 168.357 125.928 168.146C124.609 167.935 123.414 167.248 122.569 166.215Z" fill="#FFB6B6"/>
<path d="M112.711 108.399L112.705 108.367L115.622 63.9393C115.724 62.4743 116.296 61.0811 117.252 59.9661C118.207 58.8512 119.497 58.0738 120.93 57.7492C121.951 57.5222 123.01 57.5338 124.026 57.7831C125.042 58.0324 125.986 58.5127 126.786 59.1866C127.586 59.8605 128.22 60.7098 128.638 61.6685C129.056 62.6272 129.247 63.6694 129.196 64.714L127.366 102.337L134.315 153.688L120.872 155.237L112.711 108.399Z" fill="#E4E4E4"/>
<path d="M102.525 47.2497C110.338 47.2497 116.672 40.9168 116.672 33.1048C116.672 25.2928 110.338 18.96 102.525 18.96C94.7124 18.96 88.3788 25.2928 88.3788 33.1048C88.3788 40.9168 94.7124 47.2497 102.525 47.2497Z" fill="#FFB6B6"/>
<path d="M78.4089 51.0329C79.9122 49.7539 81.7523 48.9454 83.3885 47.8417C85.0248 46.738 86.5386 45.1813 86.8101 43.2265C87.1364 40.8793 85.6287 38.7308 84.659 36.5684C81.6427 29.8416 84.2848 21.0874 90.519 17.1516C96.7533 13.2158 105.794 14.5946 110.571 20.2098C112.761 17.3608 117.711 17.3469 119.917 20.1836C122.122 23.0203 120.889 27.8132 117.588 29.2334C115.27 30.2306 112.447 29.7003 110.269 30.974C107.995 32.3033 107.136 35.2878 107.54 37.89C107.944 40.4921 109.356 42.8115 110.738 45.053L107.685 40.4118C109.353 43.943 111.051 47.5807 111.304 51.4779C111.558 55.3751 110.038 59.6465 106.623 61.5423C103.629 63.2041 99.5173 62.9433 97.3272 65.575C96.4582 66.6817 96.0095 68.0604 96.0609 69.4665C92.7615 68.9581 89.4519 68.5114 86.1467 68.0445C82.471 67.5252 78.7953 67.0058 75.1196 66.4865C74.7878 65.3076 74.5516 64.1039 74.4132 62.8871C73.9434 58.5721 75.1025 53.8457 78.4089 51.0329Z" fill="#2F2E41"/>
<path d="M133.834 0C133.244 0.000918238 132.678 0.235978 132.261 0.653565C131.844 1.07115 131.61 1.63713 131.61 2.22723C131.61 2.81733 131.844 3.3833 132.261 3.80089C132.678 4.21848 133.244 4.45354 133.834 4.45446H179.02C179.61 4.45446 180.177 4.2198 180.595 3.80212C181.012 3.38443 181.247 2.81793 181.247 2.22723C181.247 1.63653 181.012 1.07002 180.595 0.652339C180.177 0.234652 179.61 0 179.02 0H133.834Z" fill="#6C63FF"/>
<path d="M133.834 13.1221C133.243 13.1221 132.676 13.3567 132.259 13.7744C131.841 14.1921 131.606 14.7586 131.606 15.3493C131.606 15.94 131.841 16.5065 132.259 16.9242C132.676 17.3419 133.243 17.5765 133.834 17.5765H179.02C179.61 17.5765 180.177 17.3419 180.595 16.9242C181.012 16.5065 181.247 15.94 181.247 15.3493C181.247 14.7586 181.012 14.1921 180.595 13.7744C180.177 13.3567 179.61 13.1221 179.02 13.1221H133.834Z" fill="#6C63FF"/>
<path d="M133.834 26.3833C133.244 26.3842 132.678 26.6193 132.261 27.0369C131.844 27.4545 131.61 28.0204 131.61 28.6105C131.61 29.2006 131.844 29.7666 132.261 30.1842C132.678 30.6018 133.244 30.8368 133.834 30.8378H179.02C179.61 30.8378 180.177 30.6031 180.595 30.1854C181.012 29.7677 181.247 29.2012 181.247 28.6105C181.247 28.0198 181.012 27.4533 180.595 27.0356C180.177 26.618 179.61 26.3833 179.02 26.3833H133.834Z" fill="#6C63FF"/>
<path d="M24.3435 0C23.7534 0.000918238 23.1877 0.235978 22.7707 0.653565C22.3537 1.07115 22.1195 1.63713 22.1195 2.22723C22.1195 2.81733 22.3537 3.3833 22.7707 3.80089C23.1877 4.21848 23.7534 4.45354 24.3435 4.45446H69.5293C70.1194 4.45354 70.6851 4.21848 71.1021 3.80089C71.5191 3.3833 71.7533 2.81733 71.7533 2.22723C71.7533 1.63713 71.5191 1.07115 71.1021 0.653565C70.6851 0.235978 70.1194 0.000918238 69.5293 0H24.3435Z" fill="#F2F2F2"/>
<path d="M24.3435 13.1221C23.7534 13.123 23.1877 13.358 22.7707 13.7756C22.3537 14.1932 22.1195 14.7592 22.1195 15.3493C22.1195 15.9394 22.3537 16.5054 22.7707 16.923C23.1877 17.3405 23.7534 17.5756 24.3435 17.5765H69.5293C70.12 17.5765 70.6866 17.3419 71.1044 16.9242C71.5221 16.5065 71.7568 15.94 71.7568 15.3493C71.7568 14.7586 71.5221 14.1921 71.1044 13.7744C70.6866 13.3567 70.12 13.1221 69.5293 13.1221H24.3435Z" fill="#F2F2F2"/>
<path d="M24.3435 26.3833C23.7534 26.3842 23.1877 26.6193 22.7707 27.0369C22.3537 27.4545 22.1195 28.0204 22.1195 28.6105C22.1195 29.2006 22.3537 29.7666 22.7707 30.1842C23.1877 30.6018 23.7534 30.8368 24.3435 30.8378H69.5293C70.1194 30.8368 70.6851 30.6018 71.1021 30.1842C71.5191 29.7666 71.7533 29.2006 71.7533 28.6105C71.7533 28.0204 71.5191 27.4545 71.1021 27.0369C70.6851 26.6193 70.1194 26.3842 69.5293 26.3833H24.3435Z" fill="#F2F2F2"/>
<path d="M238.47 0C237.88 0.000918238 237.314 0.235978 236.897 0.653565C236.48 1.07115 236.246 1.63713 236.246 2.22723C236.246 2.81733 236.48 3.3833 236.897 3.80089C237.314 4.21848 237.88 4.45354 238.47 4.45446H283.656C284.246 4.45354 284.811 4.21848 285.228 3.80089C285.645 3.3833 285.88 2.81733 285.88 2.22723C285.88 1.63713 285.645 1.07115 285.228 0.653565C284.811 0.235978 284.246 0.000918238 283.656 0H238.47Z" fill="#6C63FF"/>
<path d="M238.47 13.1221C237.879 13.1221 237.312 13.3567 236.895 13.7744C236.477 14.1921 236.242 14.7586 236.242 15.3493C236.242 15.94 236.477 16.5065 236.895 16.9242C237.312 17.3419 237.879 17.5765 238.47 17.5765H283.655C284.246 17.5756 284.811 17.3405 285.228 16.923C285.645 16.5054 285.879 15.9394 285.879 15.3493C285.879 14.7592 285.645 14.1932 285.228 13.7756C284.811 13.358 284.246 13.123 283.655 13.1221H238.47Z" fill="#6C63FF"/>
<path d="M238.47 26.3833C237.879 26.3833 237.312 26.618 236.895 27.0356C236.477 27.4533 236.242 28.0198 236.242 28.6105C236.242 29.2012 236.477 29.7677 236.895 30.1854C237.312 30.6031 237.879 30.8378 238.47 30.8378H283.655C284.246 30.8368 284.811 30.6018 285.228 30.1842C285.645 29.7666 285.879 29.2006 285.879 28.6105C285.879 28.0204 285.645 27.4545 285.228 27.0369C284.811 26.6193 284.246 26.3842 283.655 26.3833H238.47Z" fill="#6C63FF"/>
<path d="M199.825 293H0.642191C0.472189 293 0.309313 292.932 0.189277 292.811C0.0692417 292.691 0.00183105 292.528 0.00183105 292.358C0.00183105 292.188 0.0692417 292.025 0.189277 291.905C0.309313 291.784 0.472189 291.716 0.642191 291.716H199.825C199.995 291.716 200.159 291.783 200.279 291.904C200.4 292.024 200.467 292.188 200.467 292.358C200.467 292.528 200.4 292.692 200.279 292.812C200.159 292.932 199.995 293 199.825 293Z" fill="#CACACA"/>
<path d="M261.182 101.35C258.089 101.35 255.065 100.433 252.493 98.715C249.922 96.9968 247.917 94.5547 246.733 91.6974C245.55 88.8402 245.24 85.6961 245.844 82.6629C246.447 79.6296 247.936 76.8434 250.124 74.6566C252.311 72.4698 255.097 70.9805 258.131 70.3771C261.164 69.7738 264.309 70.0834 267.166 71.2669C270.024 72.4504 272.466 74.4546 274.185 77.0261C275.903 79.5975 276.82 82.6207 276.821 85.7134C276.816 89.8591 275.167 93.8338 272.235 96.7653C269.303 99.6967 265.328 101.346 261.182 101.35ZM261.182 71.1553C258.302 71.1553 255.487 72.0091 253.093 73.6088C250.698 75.2085 248.832 77.4823 247.73 80.1424C246.628 82.8026 246.34 85.7298 246.902 88.5538C247.463 91.3778 248.85 93.9718 250.886 96.0078C252.923 98.0438 255.517 99.4304 258.341 99.9921C261.166 100.554 264.093 100.265 266.754 99.1635C269.414 98.0616 271.688 96.1956 273.288 93.8015C274.888 91.4074 275.742 88.5927 275.742 85.7134C275.737 81.8536 274.202 78.1532 271.472 75.4239C268.743 72.6947 265.042 71.1595 261.182 71.1553Z" fill="#CCCCCC"/>
</g>
<defs>
<clipPath id="clip0_371_534">
<rect width="356" height="293" fill="white"/>
</clipPath>
</defs>
</svg>
