<svg width="375" height="352" viewBox="0 0 375 352" fill="none" xmlns="http://www.w3.org/2000/svg">
<g clip-path="url(#clip0_371_585)">
<path opacity="0.1" d="M120.975 141.041H67.2761C65.3744 141.041 63.8328 142.581 63.8328 144.482V155.904C63.8328 157.804 65.3744 159.345 67.2761 159.345H120.975C122.876 159.345 124.418 157.804 124.418 155.904V144.482C124.418 142.581 122.876 141.041 120.975 141.041Z" fill="#F9A826"/>
<path opacity="0.1" d="M184.377 159.349H130.679C128.777 159.349 127.236 160.89 127.236 162.791V174.212C127.236 176.113 128.777 177.653 130.679 177.653H184.377C186.279 177.653 187.821 176.113 187.821 174.212V162.791C187.821 160.89 186.279 159.349 184.377 159.349Z" fill="#F9A826"/>
<path opacity="0.1" d="M247.785 177.654H194.086C192.185 177.654 190.643 179.194 190.643 181.095V192.516C190.643 194.417 192.185 195.958 194.086 195.958H247.785C249.686 195.958 251.228 194.417 251.228 192.516V181.095C251.228 179.194 249.686 177.654 247.785 177.654Z" fill="#F9A826"/>
<path opacity="0.1" d="M120.975 113.585H67.2761C65.3744 113.585 63.8328 115.126 63.8328 117.026V128.448C63.8328 130.348 65.3744 131.889 67.2761 131.889H120.975C122.876 131.889 124.418 130.348 124.418 128.448V117.026C124.418 115.126 122.876 113.585 120.975 113.585Z" fill="#F9A826"/>
<path opacity="0.1" d="M184.377 131.889H130.679C128.777 131.889 127.236 133.43 127.236 135.33V146.752C127.236 148.652 128.777 150.193 130.679 150.193H184.377C186.279 150.193 187.821 148.652 187.821 146.752V135.33C187.821 133.43 186.279 131.889 184.377 131.889Z" fill="#F9A826"/>
<path opacity="0.1" d="M247.785 150.198H194.086C192.185 150.198 190.643 151.738 190.643 153.639V165.06C190.643 166.961 192.185 168.502 194.086 168.502H247.785C249.686 168.502 251.228 166.961 251.228 165.06V153.639C251.228 151.738 249.686 150.198 247.785 150.198Z" fill="#F9A826"/>
<path opacity="0.1" d="M318.232 141.041H264.533C262.632 141.041 261.09 142.581 261.09 144.482V155.904C261.09 157.804 262.632 159.345 264.533 159.345H318.232C320.133 159.345 321.675 157.804 321.675 155.904V144.482C321.675 142.581 320.133 141.041 318.232 141.041Z" fill="#F9A826"/>
<path opacity="0.1" d="M381.635 159.349H327.936C326.034 159.349 324.493 160.89 324.493 162.791V174.212C324.493 176.113 326.034 177.653 327.936 177.653H381.635C383.536 177.653 385.078 176.113 385.078 174.212V162.791C385.078 160.89 383.536 159.349 381.635 159.349Z" fill="#F9A826"/>
<path opacity="0.1" d="M318.232 113.585H264.533C262.632 113.585 261.09 115.126 261.09 117.026V128.448C261.09 130.348 262.632 131.889 264.533 131.889H318.232C320.133 131.889 321.675 130.348 321.675 128.448V117.026C321.675 115.126 320.133 113.585 318.232 113.585Z" fill="#F9A826"/>
<path opacity="0.1" d="M381.635 131.889H327.936C326.034 131.889 324.493 133.43 324.493 135.33V146.752C324.493 148.652 326.034 150.193 327.936 150.193H381.635C383.536 150.193 385.078 148.652 385.078 146.752V135.33C385.078 133.43 383.536 131.889 381.635 131.889Z" fill="#F9A826"/>
<path opacity="0.1" d="M120.975 76.9722H67.2761C65.3744 76.9722 63.8328 78.5129 63.8328 80.4134V91.8349C63.8328 93.7355 65.3744 95.2762 67.2761 95.2762H120.975C122.876 95.2762 124.418 93.7355 124.418 91.8349V80.4134C124.418 78.5129 122.876 76.9722 120.975 76.9722Z" fill="#F9A826"/>
<path opacity="0.1" d="M184.377 95.2761H130.679C128.777 95.2761 127.236 96.8168 127.236 98.7174V110.139C127.236 112.039 128.777 113.58 130.679 113.58H184.377C186.279 113.58 187.821 112.039 187.821 110.139V98.7174C187.821 96.8168 186.279 95.2761 184.377 95.2761Z" fill="#F9A826"/>
<path opacity="0.1" d="M247.785 113.585H194.086C192.185 113.585 190.643 115.126 190.643 117.026V128.448C190.643 130.348 192.185 131.889 194.086 131.889H247.785C249.686 131.889 251.228 130.348 251.228 128.448V117.026C251.228 115.126 249.686 113.585 247.785 113.585Z" fill="#F9A826"/>
<path opacity="0.1" d="M120.975 49.5115H67.2761C65.3744 49.5115 63.8328 51.0522 63.8328 52.9527V64.3742C63.8328 66.2748 65.3744 67.8155 67.2761 67.8155H120.975C122.876 67.8155 124.418 66.2748 124.418 64.3742V52.9527C124.418 51.0522 122.876 49.5115 120.975 49.5115Z" fill="#F9A826"/>
<path opacity="0.1" d="M184.377 67.8203H130.679C128.777 67.8203 127.236 69.361 127.236 71.2616V82.6831C127.236 84.5836 128.777 86.1243 130.679 86.1243H184.377C186.279 86.1243 187.821 84.5836 187.821 82.6831V71.2616C187.821 69.361 186.279 67.8203 184.377 67.8203Z" fill="#F9A826"/>
<path opacity="0.1" d="M247.785 86.1243H194.086C192.185 86.1243 190.643 87.665 190.643 89.5655V100.987C190.643 102.888 192.185 104.428 194.086 104.428H247.785C249.686 104.428 251.228 102.888 251.228 100.987V89.5655C251.228 87.665 249.686 86.1243 247.785 86.1243Z" fill="#F9A826"/>
<path opacity="0.1" d="M318.232 76.9722H264.533C262.632 76.9722 261.09 78.5129 261.09 80.4134V91.8349C261.09 93.7355 262.632 95.2762 264.533 95.2762H318.232C320.133 95.2762 321.675 93.7355 321.675 91.8349V80.4134C321.675 78.5129 320.133 76.9722 318.232 76.9722Z" fill="#F9A826"/>
<path opacity="0.1" d="M381.635 95.2761H327.936C326.034 95.2761 324.493 96.8168 324.493 98.7174V110.139C324.493 112.039 326.034 113.58 327.936 113.58H381.635C383.536 113.58 385.078 112.039 385.078 110.139V98.7174C385.078 96.8168 383.536 95.2761 381.635 95.2761Z" fill="#F9A826"/>
<path opacity="0.1" d="M318.232 49.5115H264.533C262.632 49.5115 261.09 51.0522 261.09 52.9527V64.3742C261.09 66.2748 262.632 67.8155 264.533 67.8155H318.232C320.133 67.8155 321.675 66.2748 321.675 64.3742V52.9527C321.675 51.0522 320.133 49.5115 318.232 49.5115Z" fill="#F9A826"/>
<path opacity="0.1" d="M381.635 67.8203H327.936C326.034 67.8203 324.493 69.361 324.493 71.2616V82.6831C324.493 84.5836 326.034 86.1243 327.936 86.1243H381.635C383.536 86.1243 385.078 84.5836 385.078 82.6831V71.2616C385.078 69.361 383.536 67.8203 381.635 67.8203Z" fill="#F9A826"/>
<path opacity="0.1" d="M245.5 352C385.504 352 499 331.367 499 305.916C499 280.464 385.504 259.832 245.5 259.832C105.496 259.832 -8 280.464 -8 305.916C-8 331.367 105.496 352 245.5 352Z" fill="white"/>
<path d="M103.225 148.674L81.9067 279.284L178.302 269.095L174.131 257.979L98.8222 264.232L116.433 148.442L103.225 148.674Z" fill="#3F3D56"/>
<path d="M78.1992 0.463158L207.962 0L245.5 283.916L115.274 301.516L78.1992 0.463158Z" fill="#3F3D56"/>
<path d="M92.3341 11.3474H197.071L233.682 275.347L125.702 290.168L92.3341 11.3474Z" fill="white"/>
<path d="M191.111 263.472C191.769 264.732 192.26 266.094 193.118 267.228C195.62 270.572 200.371 271.096 203.934 273.277C204.113 273.368 204.26 273.51 204.356 273.685C204.518 274.069 204.157 274.472 203.809 274.713C201.107 276.607 197.562 276.649 194.258 276.626C193.147 276.665 192.036 276.559 190.953 276.311C189.206 275.848 187.709 274.63 185.985 274.134C185.091 273.911 184.177 273.782 183.256 273.75L179.636 273.504C178.673 273.49 177.718 273.313 176.814 272.981C176.363 272.808 175.964 272.525 175.653 272.156C175.341 271.788 175.129 271.346 175.034 270.873C174.932 270.105 175.261 269.359 175.456 268.609C175.92 266.83 175.776 264.681 177.162 263.467C177.733 263.031 178.387 262.715 179.085 262.541C181.604 261.693 184.175 261.009 186.783 260.494C188.928 260.073 190.161 261.647 191.111 263.472Z" fill="#3F3D56"/>
<path d="M150.171 273.49C150.264 274.477 150.292 275.607 149.578 276.297C149.133 276.666 148.597 276.906 148.025 276.992C144.601 277.788 140.782 277.844 137.802 275.982C137.492 275.805 137.218 275.571 136.996 275.292C136.747 274.912 136.606 274.472 136.588 274.018C136.481 272.707 136.884 271.415 137.25 270.151C138.117 267.15 138.775 264.094 139.22 261.003C139.257 260.749 147.965 262.393 148.544 263.254C149.272 264.32 149.277 266.876 149.471 268.145C149.765 269.918 149.998 271.699 150.171 273.49Z" fill="#3F3D56"/>
<path d="M182.584 152.967L184.901 174.499C185.364 178.899 185.851 183.322 185.531 187.736C185.16 192.831 183.733 197.926 184.336 202.974C184.572 204.938 185.109 206.865 185.188 208.842C185.203 210.158 185.136 211.472 184.989 212.779C183.942 225.845 187.255 238.809 189.109 251.782C189.407 253.382 189.473 255.017 189.304 256.636C189.063 258.28 188.581 260.438 190.045 261.216L176.29 266.2C174.534 264 175.697 260.577 175.363 257.784C175.058 255.269 173.677 253.028 172.94 250.605C172.272 248.429 172.133 246.136 171.915 243.876C170.715 231.57 167.031 219.583 166.169 207.249C166.141 206.058 165.986 204.873 165.705 203.715C165.242 202.182 164.315 200.844 163.638 199.403C162.6 197.24 162.091 194.869 161.59 192.525L158.647 178.746C155.672 183.174 155.792 188.936 155.204 194.244C154.379 201.654 152.535 208.94 151.033 216.258C150.684 217.832 150.423 219.425 150.25 221.028C149.86 225.322 150.634 229.657 150.222 233.946C149.759 238.915 147.668 243.765 148.174 248.734C148.452 251.485 149.508 254.088 150.222 256.756C150.936 259.424 151.288 262.351 150.199 264.894C146.392 263.497 142.303 263.046 138.284 263.578C133.867 259.063 133.084 252.764 132.783 246.442C132.482 240.12 133.209 233.788 132.421 227.526C132.19 225.674 131.828 223.867 131.768 222.019C131.573 216.096 134.423 210.552 135.842 204.794C137.118 199.612 137.24 194.212 136.198 188.978C135.503 185.518 134.308 182.16 133.881 178.654C133.302 173.74 134.284 168.789 135.271 163.935C135.934 160.66 136.592 157.386 137.343 154.13C138.149 150.633 139.109 147.062 141.264 144.2C144.712 139.619 150.834 137.586 156.557 138.03C162.281 138.475 167.624 141.078 172.351 144.32C176.077 146.808 179.509 149.709 182.584 152.967Z" fill="#192534"/>
<path d="M167.207 70.5158C166.947 70.9331 166.766 71.3947 166.674 71.8775C166.558 72.827 167.137 73.6977 167.601 74.5268C168.195 75.5919 168.651 76.728 168.959 77.9078C169.179 78.6381 169.247 79.4059 169.158 80.1634C169.045 80.7324 168.842 81.2797 168.556 81.7845C167.661 83.5074 166.336 85.1007 164.533 85.8186C163.137 86.3323 161.614 86.3939 160.181 85.9946C158.758 85.5919 157.412 84.9531 156.2 84.1049C155.179 83.458 154.26 82.6618 153.475 81.7428C152.726 80.7378 152.094 79.65 151.594 78.5007C150.63 76.4859 149.652 74.3323 149.828 72.123C149.837 71.9227 149.875 71.7246 149.939 71.5348C150.09 71.1917 150.3 70.8781 150.56 70.6085C152.538 68.2668 153.551 65.2622 153.397 62.2021L160.149 63.7352C161.636 64.0733 163.124 64.4114 164.593 64.8329C165.798 65.1803 167.652 65.6619 168.435 66.7365C169.218 67.811 167.74 69.5339 167.207 70.5158Z" fill="#FBBEBE"/>
<path d="M163.592 69.3672C170.37 69.3672 175.864 63.8763 175.864 57.1028C175.864 50.3293 170.37 44.8384 163.592 44.8384C156.815 44.8384 151.32 50.3293 151.32 57.1028C151.32 63.8763 156.815 69.3672 163.592 69.3672Z" fill="#FBBEBE"/>
<path d="M161.618 81.8447C162.137 80.7099 163.259 79.992 164.283 79.2788C165.307 78.5655 166.345 77.6531 166.544 76.4165C166.557 76.1368 166.626 75.8625 166.748 75.6106C167.142 75.0177 168.078 75.3142 168.639 75.7495C170.002 76.8102 170.928 78.3154 171.832 79.7836C173.001 81.5691 174.002 83.4592 174.821 85.4295C176.124 88.8615 176.281 92.6085 176.425 96.272C176.555 99.6068 176.68 102.992 175.869 106.225C175.359 108.272 174.478 110.259 174.427 112.367C174.274 120.023 171.614 127.341 171.429 134.997C171.415 137.21 171.526 139.423 171.763 141.624L172.198 146.594C165.46 146.208 158.74 145.617 152.039 144.82C151.844 142.532 151.191 140.314 150.593 138.1C148.145 129.049 146.576 119.783 145.907 110.431C145.551 105.466 145.185 100.519 144.633 95.5727C144.137 91.0754 143.164 86.5504 143.748 82.0624C144.053 80.0224 144.696 78.0473 145.648 76.2173C145.949 75.4883 146.467 74.8691 147.131 74.4434C147.463 74.2831 147.815 74.1694 148.178 74.1053C149.229 73.8926 150.295 73.7671 151.367 73.7302C151.629 73.7081 151.892 73.7332 152.145 73.8043C152.597 74.0292 152.968 74.3884 153.207 74.8325C155.271 77.9349 158.194 80.371 161.618 81.8447Z" fill="#F2F2F2"/>
<path d="M155.927 80.8627C156.789 82.0947 158.615 82.3864 159.412 83.6416C159.68 84.1662 159.884 84.7214 160.019 85.2951C160.506 86.8467 161.488 88.1945 162.086 89.709C162.948 91.8858 162.971 94.2942 162.98 96.6332C163.065 98.4963 162.922 100.363 162.554 102.191C162.276 103.335 161.822 104.424 161.488 105.554C160.921 107.475 160.711 109.485 160.867 111.482C160.867 111.914 160.982 112.337 161.201 112.709C161.515 113.081 161.925 113.36 162.387 113.515C163.745 114.113 165.168 114.724 166.651 114.585C166.955 114.576 167.25 114.477 167.499 114.303C167.671 114.146 167.812 113.959 167.916 113.752L168.843 112.186C169.682 110.755 170.558 109.152 170.233 107.517C169.998 106.674 169.643 105.867 169.181 105.123C168.589 103.915 168.084 102.666 167.67 101.385C166.192 97.138 164.695 92.8307 164.361 88.3473C164.165 86.641 164.355 84.9125 164.918 83.2896C165.353 82.2908 165.9 81.3445 166.549 80.469C166.402 80.2722 166.199 80.1247 165.966 80.0461C165.734 79.9675 165.483 79.9615 165.247 80.029C164.78 80.1729 164.329 80.3606 163.898 80.5894C162.535 81.1637 161.025 80.9553 159.648 80.5616C159.111 80.4041 158.258 79.8669 157.702 79.9039C157.512 79.9271 155.959 80.9182 155.927 80.8627Z" fill="#F9A826"/>
<path d="M166.776 80.8119C166.498 80.5895 166.067 80.3858 165.821 80.6451C165.739 80.7576 165.679 80.885 165.645 81.0203C165.404 81.6687 164.695 81.9883 164.051 82.2384C163.407 82.4885 162.712 82.6274 162.322 82.1504C162.199 81.9647 162.139 81.7446 162.15 81.5222C162.161 81.2998 162.242 81.0867 162.383 80.9138C162.668 80.5705 163.011 80.2804 163.398 80.0569C165.529 78.5532 166.981 76.2697 167.439 73.7024C168.036 74.1772 168.432 74.8607 168.546 75.6152C168.699 76.3517 168.718 77.1112 168.871 77.8477C169.098 78.9037 169.603 79.8902 169.719 80.9601C169.779 81.5298 169.719 82.1041 169.719 82.6738C169.74 83.2307 169.805 83.7852 169.913 84.3319C168.829 83.1832 168.064 81.8354 166.776 80.8119Z" fill="#F2F2F2"/>
<path d="M157.396 77.667C156.933 77.227 156.469 76.8102 156.006 76.3609C153.972 74.3772 152.436 71.9412 151.524 69.2515C150.931 69.7146 150.278 70.326 150.264 71.1041C150.317 71.6547 150.529 72.1779 150.875 72.6094C152.628 75.3676 153.785 78.4611 154.272 81.6919C154.523 81.301 154.87 80.9811 155.279 80.7629C155.689 80.5447 156.148 80.4355 156.613 80.446C157.345 80.446 160.631 82.3913 160.867 81.9003C161.215 81.1315 157.952 78.1904 157.396 77.667Z" fill="#F2F2F2"/>
<path d="M167.745 73.9803C172.104 78.3174 177.441 81.5464 183.307 83.3963C183.89 83.5234 184.431 83.7977 184.878 84.1929C185.212 84.6098 185.436 85.1033 185.531 85.6287C186.662 90.0473 187.042 94.6186 187.417 99.1622C187.516 99.9137 187.5 100.676 187.371 101.422C187.098 102.636 186.236 103.618 185.388 104.53C182.727 107.379 179.692 110.357 179.242 114.229C179.208 114.975 179.12 115.718 178.978 116.452C178.747 117.313 178.232 118.073 177.917 118.911C176.369 123.038 179.868 128.035 177.736 131.88C178.89 134.095 179.682 136.482 180.081 138.947C180.153 139.882 180.367 140.801 180.716 141.671C181.351 142.995 182.658 143.838 183.687 144.913C186.824 148.127 187.209 153.046 187.394 157.534C187.51 160.063 187.473 162.967 185.541 164.625C184.424 165.593 182.899 165.908 181.439 166.149C179.497 166.473 177.384 166.705 175.665 165.746C174.432 165.06 173.593 163.861 172.791 162.703C171.271 160.494 169.747 158.289 168.305 156.024C166.025 152.453 163.875 148.373 164.533 144.186C164.348 148.47 163.444 152.787 161.34 156.52C159.236 160.253 155.848 163.37 151.737 164.602C147.627 165.834 142.821 164.963 139.758 161.962C138.758 160.933 137.899 159.776 137.204 158.521C135.46 155.536 134.188 152.301 133.432 148.929C133.232 148.053 133.084 147.076 133.524 146.293C133.733 145.923 134.053 145.631 134.27 145.265C135.003 144.019 134.298 142.449 133.589 141.18C132.509 141.282 131.736 140.013 131.833 138.929C131.93 137.845 132.579 136.905 133.038 135.918C134.382 133.01 134.085 129.624 133.436 126.489C132.788 123.353 131.819 120.236 131.893 117.035C131.972 113.65 129.534 110.602 127.676 107.772C126.638 106.179 125.428 104.697 124.524 103.025C122.64 99.5064 122.205 95.3919 123.31 91.5572C123.959 89.5881 124.81 87.6914 125.85 85.8974L127.379 83.0304C127.664 82.3454 128.106 81.7369 128.669 81.2542C129.233 80.7714 129.902 80.4279 130.623 80.2515L141.204 76.0831C142.556 75.6212 143.841 74.9794 145.022 74.1748C146.315 73.2022 147.279 71.8591 148.512 70.8216C148.692 70.633 148.907 70.4822 149.146 70.378C149.385 70.2738 149.642 70.2183 149.902 70.2148C150.894 70.3028 151.246 71.5534 151.348 72.5306C151.58 74.7167 153.202 76.5694 153.753 78.6953C156.738 90.4363 163.055 101.265 164.788 113.251C166.734 108.578 168.681 103.896 171.174 99.4957C171.567 98.864 171.898 98.1954 172.161 97.4995C172.46 96.4956 172.572 95.4452 172.49 94.401C172.365 91.3858 171.563 88.4401 170.771 85.5268C169.742 81.5622 168.815 77.9079 167.745 73.9803Z" fill="#3F3D56"/>
<path d="M187.909 109.856C188.113 111.829 188.312 113.807 188.678 115.757C189.104 118.013 189.753 120.217 190.397 122.422C190.712 123.661 191.163 124.862 191.741 126.002C191.951 126.333 192.118 126.689 192.237 127.063C192.464 127.989 191.945 128.915 191.723 129.842C191.055 132.621 193.058 135.71 191.797 138.271C191.417 139.049 190.754 139.693 190.504 140.527C190.212 141.485 190.504 142.509 190.657 143.5C191.051 146.279 190.101 149.104 189.165 151.777L187.57 156.288C186.115 153.583 184.646 150.85 182.635 148.53C181.917 147.696 181.133 146.923 180.471 146.043C179.482 144.66 178.702 143.14 178.153 141.532C176.739 137.71 175.93 133.691 175.757 129.619C175.642 128.462 175.777 127.293 176.151 126.192C176.458 125.555 176.802 124.936 177.18 124.339C178.422 122.102 178.677 119.453 178.654 116.896C178.631 114.34 178.357 111.774 178.654 109.231C178.896 107.108 179.524 105.047 180.508 103.15C181.088 101.921 181.95 100.847 183.024 100.014C183.826 99.4144 184.803 99.0969 185.805 99.1111C187.32 99.1991 186.973 100.501 187.102 101.756L187.909 109.856Z" fill="#3F3D56"/>
<path d="M119.742 103.553C118.796 106.332 117.944 109.135 117.184 111.964C116.442 114.743 115.779 117.537 115.195 120.347C114.896 121.582 114.728 122.846 114.695 124.117C114.754 125.597 115.008 127.062 115.45 128.475C118.435 139.225 123.876 149.141 130.002 158.465C131.753 156.283 133.832 154.386 136.166 152.842C136.357 152.729 136.516 152.57 136.629 152.379C136.688 152.199 136.705 152.008 136.68 151.82C136.654 151.632 136.586 151.453 136.481 151.295C134.79 147.831 132.111 144.779 131.267 141.013C130.915 139.448 130.901 137.817 130.503 136.261C129.988 134.246 128.839 132.403 128.575 130.337C128.292 128.086 129.038 125.632 127.982 123.635C130.137 122.797 131.383 120.579 132.296 118.453C133.272 116.278 133.969 113.989 134.372 111.64C135.007 107.136 134.125 102.549 131.865 98.6017C130.762 96.6325 129.345 94.8555 127.671 93.3402C127.12 92.8446 125.817 91.4227 125.016 91.4366C123.945 91.4598 123.602 93.192 123.296 93.9701C122.059 97.1474 120.835 100.329 119.742 103.553Z" fill="#3F3D56"/>
<path d="M138.937 155.394C139.076 155.496 139.234 155.635 139.197 155.802C139.16 155.968 139.025 156.01 138.905 156.079C138.278 156.524 137.811 157.157 137.57 157.886C136.8 159.62 136.129 161.397 135.559 163.207C134.522 161.655 133.302 160.232 131.925 158.97C130.869 157.997 129.687 157.075 129.122 155.76C129.122 155.723 131.55 153.93 131.773 153.736C132.454 153.129 133.311 151.448 134.016 151.077C134.813 150.661 135.573 152.295 136.18 152.953C137.015 153.857 137.939 154.675 138.937 155.394Z" fill="#FBBEBE"/>
<path d="M176.624 55.1852C176.592 54.5785 176.513 53.9069 176.049 53.5132C175.643 53.232 175.153 53.0965 174.659 53.1288C171.957 53.0408 169.163 53.4947 166.614 52.5869C164.936 51.9894 163.504 50.8408 161.868 50.1275C160.232 49.4143 158.138 49.2244 156.817 50.424C155.816 51.3503 155.542 52.7722 155.195 54.0829C154.429 56.9758 153.067 59.6768 151.195 62.0122C149.939 61.6231 149.04 60.5023 148.461 59.3259C146.491 55.3149 147.46 50.5259 148.86 46.2741C149.323 44.8475 149.837 43.4349 150.352 42.0269L151.483 38.9145C152.967 38.7688 154.346 38.0831 155.357 36.9878L155.844 38.1688C157.1 38.1236 158.313 37.6953 159.319 36.9414C159.709 37.6732 160.71 37.8678 161.521 37.6315C162.332 37.3953 163.031 36.9414 163.838 36.7052C165.993 36.0105 168.291 37.0804 170.553 37.2008C171.51 37.1775 172.468 37.2053 173.422 37.2842C176.091 37.7149 177.977 40.2252 178.793 42.8004C179.335 44.5141 179.785 46.6214 181.476 47.2282C181.513 47.8766 180.364 48.0016 180.267 48.6176C180.255 48.823 180.304 49.0273 180.406 49.2059L181.958 52.536C181.216 52.7222 180.435 52.6835 179.715 52.4248C179.015 54.069 176.694 56.4404 176.624 55.1852Z" fill="#192534"/>
<path d="M255.297 62.4336C256.084 64.9733 256.703 67.5617 257.151 70.1823C257.484 72.146 257.679 74.3275 256.553 75.9671C260.844 69.5153 265.326 62.869 271.846 58.7052C270.519 57.2664 269.508 55.5645 268.882 53.7101C268.255 51.8556 268.026 49.8902 268.208 47.9414C268.245 47.5524 262.856 49.5856 262.443 49.8172C260.552 50.8686 258.819 52.1747 256.975 53.3002C256.02 53.8791 252.044 55.25 252.007 56.0791C252.007 56.6117 253.587 58.242 253.884 58.8025C254.466 59.9668 254.939 61.1824 255.297 62.4336Z" fill="#FBBEBE"/>
<path d="M275.239 305.768C274.179 305.022 272.937 304.576 271.645 304.478C270.353 304.381 269.058 304.634 267.898 305.212C265.799 306.296 264.385 308.347 262.476 309.737C259.195 312.117 254.861 312.307 251.019 313.595C250 313.938 248.915 314.447 248.484 315.448C248.34 315.868 248.282 316.313 248.315 316.757C248.348 317.2 248.47 317.633 248.674 318.027C249.317 319.458 250.442 320.617 251.854 321.302C253.578 322.126 255.561 322.163 257.471 322.186L274.062 322.381C279.159 322.441 284.29 322.501 289.355 323.136C290.537 323.284 291.816 323.446 292.859 322.867C294.555 321.941 294.749 319.597 294.62 317.666C294.278 312.773 293.184 307.961 291.376 303.401C291.176 302.896 290.912 302.322 290.351 302.229C289.953 302.211 289.562 302.336 289.248 302.581C284.568 305.36 278.64 306.93 273.663 304.707" fill="white"/>
<path d="M283.544 199.982C281.69 210.742 282.899 221.797 284.985 232.51C285.369 234.643 285.875 236.752 286.5 238.827C287.246 241.19 288.252 243.459 288.952 245.835C290.731 251.856 290.481 258.294 290.217 264.579L289.003 293.179C288.901 295.578 288.808 298.033 289.531 300.321C289.823 301.247 290.18 302.405 289.443 303.03C289.155 303.237 288.818 303.366 288.465 303.406C285.149 304.016 281.724 303.503 278.733 301.947L278.404 273.055C278.302 264.148 278.196 255.205 276.824 246.409C275.735 239.416 273.844 232.515 273.719 225.438C273.589 218.027 275.406 210.714 277.259 203.53C277.658 201.993 279.113 200.867 280.309 199.825C280.726 199.414 281.234 199.106 281.792 198.926C282.348 198.774 283.201 199.515 283.544 199.982Z" fill="#3F3D56"/>
<path opacity="0.1" d="M283.544 199.982C281.69 210.742 282.899 221.797 284.985 232.51C285.369 234.643 285.875 236.752 286.5 238.827C287.246 241.19 288.252 243.459 288.952 245.835C290.731 251.856 290.481 258.294 290.217 264.579L289.003 293.179C288.901 295.578 288.808 298.033 289.531 300.321C289.823 301.247 290.18 302.405 289.443 303.03C289.155 303.237 288.818 303.366 288.465 303.406C285.149 304.016 281.724 303.503 278.733 301.947L278.404 273.055C278.302 264.148 278.196 255.205 276.824 246.409C275.735 239.416 273.844 232.515 273.719 225.438C273.589 218.027 275.406 210.714 277.259 203.53C277.658 201.993 279.113 200.867 280.309 199.825C280.726 199.414 281.234 199.106 281.792 198.926C282.348 198.774 283.201 199.515 283.544 199.982Z" fill="black"/>
<path d="M248.744 166.357C248.058 169.178 249.513 172.1 249.351 175C249.259 176.755 248.568 178.506 248.888 180.229C249.208 181.952 250.44 183.249 251.098 184.828C251.578 186.147 251.832 187.537 251.849 188.941C252.039 192.405 251.886 195.888 251.756 199.339C251.539 205.128 251.376 210.95 252.141 216.689C252.807 221.66 254.159 226.515 256.159 231.116C256.765 232.367 257.266 233.667 257.656 235.002C257.912 236.245 258.082 237.505 258.166 238.772C258.606 242.892 259.713 246.914 261.442 250.68C262.624 253.259 264.686 255.311 265.34 258.049C265.961 260.67 265.544 263.435 265.993 266.089C266.322 268.057 267.124 269.919 267.569 271.865C268.148 274.379 268.134 276.987 268.426 279.553C269.26 286.964 272.63 294.374 270.618 301.562C270.215 303.007 269.589 304.475 269.872 305.948C270.011 306.671 270.363 307.384 270.206 308.102C270.076 308.713 269.603 309.186 269.362 309.765C268.899 310.849 269.39 312.136 270.215 312.974C271.095 313.756 272.118 314.36 273.227 314.753C276.643 316.212 280.179 317.694 283.887 317.662C284.337 317.686 284.786 317.603 285.198 317.421C285.865 317.073 286.194 316.318 286.477 315.624L288.377 310.927C288.609 310.358 288.841 309.691 288.521 309.163C288.298 308.873 288.029 308.623 287.724 308.422C286.19 307.129 286.537 304.716 286.945 302.776C287.987 297.791 288.564 292.721 288.669 287.63C288.873 277.478 287.2 267.386 285.532 257.368C284.952 253.889 284.368 250.388 283.215 247.053C282.061 243.718 280.36 240.509 280.638 237.044C280.934 233.302 279.961 229.379 280.638 225.688C281.314 221.996 282.385 218.384 283.076 214.697C283.97 209.913 284.192 205.035 284.466 200.182C284.582 198.199 284.73 196.152 285.657 194.392C286.199 193.364 286.987 192.484 287.594 191.488C289.16 188.899 289.411 185.689 290.908 183.059C291.617 181.813 292.594 180.715 293.114 179.381C293.478 178.329 293.669 177.225 293.679 176.111C293.826 173.316 293.67 170.513 293.216 167.751C285.326 163.739 276.577 161.711 267.726 161.841C264.339 161.897 260.914 162.24 257.735 163.411C254.704 164.537 251.942 166.116 248.744 166.357Z" fill="#3F3D56"/>
<path d="M267.745 313.095C266.382 314.79 266.475 317.212 265.604 319.208C264.547 321.631 262.193 323.182 259.959 324.595L246.056 333.395C245.296 333.858 244.48 334.428 244.202 335.289C244.07 335.839 244.094 336.415 244.272 336.952C244.604 338.114 245.222 339.174 246.071 340.035C246.92 340.896 247.971 341.531 249.129 341.88C250.359 342.173 251.623 342.302 252.887 342.264L259.139 342.348C261.043 342.422 262.951 342.348 264.844 342.125C266.577 341.875 268.264 341.38 269.988 341.065C273.125 340.495 276.351 340.546 279.493 339.995C281.417 339.617 283.317 339.127 285.184 338.527C287.455 337.846 289.767 337.137 291.714 335.789C292.25 335.464 292.685 334.995 292.97 334.437C293.299 333.673 293.118 332.797 292.933 331.987L289.948 318.88C289.78 317.788 289.382 316.745 288.78 315.818C288.118 314.938 286.927 314.354 285.893 314.73C285.467 314.924 285.064 315.166 284.693 315.452C283.164 316.457 281.203 316.624 279.396 316.309C278.228 316.101 276.685 315.781 275.744 315.008C275.03 314.419 274.817 313.507 274.21 312.84C273.784 312.403 273.272 312.061 272.705 311.835C272.138 311.609 271.53 311.504 270.921 311.528C270.311 311.552 269.713 311.704 269.166 311.974C268.619 312.244 268.135 312.626 267.745 313.095Z" fill="white"/>
<path d="M258.731 60.6275C267.979 60.6275 275.475 53.1354 275.475 43.8936C275.475 34.6517 267.979 27.1597 258.731 27.1597C249.484 27.1597 241.987 34.6517 241.987 43.8936C241.987 53.1354 249.484 60.6275 258.731 60.6275Z" fill="#FBBEBE"/>
<path d="M245.815 44.8753C247.419 43.9768 247.419 41.3877 249.059 40.5262C250.7 39.6648 252.563 41.1608 253.615 42.6706C255.148 44.8819 256.213 47.3833 256.743 50.021C256.891 50.7713 257.03 51.5911 257.596 52.1144C258.161 52.6378 258.903 52.7026 259.626 52.7767C261.742 52.9867 263.861 53.1782 265.984 53.3511C268.347 53.541 270.841 53.6938 272.986 52.6795C273.833 52.3011 274.561 51.699 275.09 50.938C275.515 50.2073 275.819 49.4128 275.99 48.5852C277.097 44.3751 278.214 40.114 278.307 35.7603C278.344 33.9633 278.186 32.1014 277.32 30.5266C276.814 29.6003 276.073 28.7944 275.864 27.7755C275.656 26.7565 276.328 25.4597 277.384 25.5709C276.429 25.6101 275.478 25.4295 274.604 25.0429C273.765 24.5797 273.144 23.5839 273.441 22.6761C271.086 22.9772 269.372 20.6521 267.536 19.1469C267.238 18.8512 266.835 18.6848 266.415 18.6837C266.092 18.7641 265.781 18.8839 265.488 19.0403C264.561 19.3645 263.593 18.7485 262.643 18.4799C260.094 17.7666 256.854 19.4896 254.963 17.637C255.144 18.818 253.694 19.61 252.498 19.5869C251.302 19.5637 250.069 19.1237 248.939 19.522C249.102 19.8214 249.198 20.1532 249.219 20.4938C249.239 20.8343 249.184 21.1752 249.058 21.4921C248.931 21.8089 248.736 22.0939 248.486 22.3266C248.236 22.5593 247.938 22.734 247.613 22.8382L248.174 24.061C247.596 24.1764 247.062 24.4509 246.632 24.8536C246.202 25.2562 245.894 25.771 245.741 26.3397C245.125 28.7713 245.278 32.2264 245.426 34.7275C245.5 35.8252 246.571 44.4631 245.815 44.8753Z" fill="#192534"/>
<path d="M260.103 65.4628C251.692 74.9158 249.55 88.2224 247.757 100.751L245.115 119.249C244.429 124.048 243.725 128.846 243.127 133.658C242.71 136.951 242.321 140.295 242.775 143.584C243.132 146.177 243.998 148.678 244.721 151.175C246.603 157.723 247.539 164.505 247.502 171.318C248.063 169.669 250.005 169.002 251.71 168.631C266.02 165.528 280.95 167.122 294.281 173.175C296.622 166.621 296.181 159.451 296.835 152.523C297.762 142.643 300.955 133.07 301.9 123.209C302.248 119.536 302.29 115.845 302.327 112.154C302.354 109.444 302.382 106.707 301.817 104.053C301.187 101.117 299.857 98.3794 298.48 95.7163C294.675 88.3132 290.448 81.1348 285.819 74.2165C283.489 70.7335 281.06 67.3201 278.529 63.9761C277.247 62.2809 275.939 60.6043 274.604 58.9462C273.311 57.339 272.75 55.9449 270.697 56.9083C266.818 58.7238 262.925 62.2902 260.103 65.4628Z" fill="#F9A826"/>
<path d="M264.923 144.144C262.871 144.218 260.816 144.153 258.773 143.949C257.257 143.801 255.71 143.579 254.231 143.949C253.588 144.111 252.987 144.406 252.465 144.816C252.272 144.987 252.133 145.212 252.066 145.461C251.998 145.711 252.005 145.975 252.085 146.22C252.165 146.466 252.316 146.683 252.517 146.845C252.719 147.007 252.963 147.106 253.221 147.131L254.806 147.27C255.811 147.358 256.859 147.46 257.642 148.197C257.964 148.486 258.168 148.883 258.217 149.313C258.314 150.392 257.378 150.98 256.539 151.429C255.347 151.989 254.244 152.723 253.267 153.606C252.502 154.345 252.022 155.328 251.909 156.385C251.906 156.479 251.927 156.573 251.971 156.656C252.015 156.74 252.08 156.81 252.16 156.86C252.24 156.91 252.332 156.939 252.426 156.942C252.52 156.946 252.614 156.925 252.697 156.881C254.551 155.955 255.76 153.208 257.795 153.667C255.944 154.252 254.359 155.471 253.318 157.108C253.061 157.499 252.944 157.965 252.986 158.431C253.027 158.897 253.225 159.335 253.547 159.674C253.869 160.014 254.296 160.234 254.759 160.301C255.222 160.367 255.694 160.275 256.099 160.04C256.4 159.863 256.691 159.67 256.97 159.461C258.348 158.345 259.583 157.064 260.645 155.644C259.162 158.771 257.661 162.429 259.366 165.537C259.451 165.708 259.584 165.851 259.748 165.948C259.913 166.045 260.102 166.092 260.293 166.084C260.83 166.028 260.988 165.523 261.076 165.079C261.354 163.648 261.424 162.138 262.128 160.864C263.759 157.909 267.782 157.622 270.845 156.181C274.52 154.477 277.037 150.809 278.052 146.891C278.407 145.748 278.469 144.534 278.233 143.361C277.551 140.726 274.298 140.119 272.208 141.393C269.645 143.019 268.157 144.042 264.923 144.144Z" fill="#FBBEBE"/>
<path opacity="0.1" d="M261.669 92.3028C264.913 97.3095 270.544 100.13 275.373 103.646C276.551 104.412 277.579 105.389 278.404 106.526C279.623 108.407 279.794 110.797 279.544 113.011C279.229 115.933 278.288 118.744 277.357 121.533L275.331 127.577C274.048 131.412 272.722 135.326 270.28 138.549C269.654 139.369 268.927 140.244 268.955 141.272C269.009 141.866 269.213 142.437 269.548 142.931C270.329 144.205 271.359 145.31 272.577 146.179C273.794 147.047 275.174 147.663 276.634 147.988C277.508 148.211 278.424 148.211 279.298 147.988C280.55 147.618 281.491 146.599 282.362 145.635C286.533 141.036 290.704 136.372 293.716 130.976C296.659 125.71 298.42 119.861 300.042 114.067C300.71 111.934 301.175 109.742 301.432 107.522C301.775 103.354 300.681 99.1853 298.893 95.4198C297.104 91.6544 294.643 88.2455 292.108 84.934C289.715 81.6812 287.057 78.6324 284.16 75.819C279.118 71.1087 272.949 68.339 266.202 71.0114C261.438 72.9011 259.653 76.8426 259.227 81.891C258.866 85.5361 259.725 89.1978 261.669 92.3028Z" fill="black"/>
<path d="M263.356 91.0337C266.6 96.0405 272.236 98.8611 277.06 102.376C278.234 103.151 279.257 104.133 280.077 105.276C281.296 107.156 281.467 109.542 281.217 111.76C280.897 114.683 279.961 117.494 279.025 120.282L277 126.303C275.716 130.138 274.391 134.047 271.948 137.275C271.327 138.095 270.6 138.966 270.628 139.999C270.679 140.592 270.883 141.162 271.221 141.652C272.001 142.927 273.03 144.033 274.247 144.902C275.463 145.772 276.842 146.388 278.302 146.715C279.178 146.937 280.096 146.937 280.972 146.715C282.223 146.349 283.159 145.325 284.035 144.366C288.206 139.763 292.377 135.103 295.389 129.707C298.332 124.441 300.093 118.592 301.715 112.793C302.385 110.662 302.85 108.472 303.105 106.253C303.448 102.085 302.354 97.9162 300.57 94.1461C298.786 90.376 296.321 86.9718 293.786 83.6603C291.385 80.4245 288.72 77.3928 285.819 74.5962C280.782 69.8906 274.613 67.1162 267.866 69.7933C263.097 71.683 261.317 75.6198 260.886 80.6729C260.546 84.3041 261.414 87.946 263.356 91.0337Z" fill="#F9A826"/>
<path d="M365.831 257.164C365.835 258.372 365.711 259.576 365.461 260.758C365.414 260.98 365.363 261.221 365.312 261.411C363.996 266.686 360.284 270.545 355.854 270.79C355.705 270.79 355.557 270.79 355.39 270.79C350.705 270.79 346.742 266.751 345.436 261.189C345.398 261.041 345.366 260.892 345.334 260.726C345.084 259.544 344.959 258.339 344.963 257.131C344.963 249.596 349.63 243.491 355.39 243.491C361.151 243.491 365.831 249.642 365.831 257.164Z" fill="#3F3D56"/>
<path opacity="0.1" d="M365.831 257.164C365.835 258.372 365.711 259.576 365.461 260.758C365.414 260.98 365.363 261.221 365.312 261.411C365.155 261.411 365.002 261.411 364.849 261.411C363.701 261.349 362.561 261.194 361.438 260.948C360.443 261.255 359.427 261.487 358.398 261.643C357.609 261.761 356.813 261.836 356.016 261.865H355.209C354.255 261.865 353.301 261.802 352.355 261.675C350.824 261.471 349.321 261.098 347.873 260.563C347.08 260.827 346.273 261.044 345.454 261.212C345.417 261.064 345.385 260.915 345.352 260.749C345.102 259.567 344.978 258.362 344.981 257.155C344.981 249.619 349.648 243.515 355.409 243.515C361.169 243.515 365.831 249.642 365.831 257.164Z" fill="black"/>
<path d="M388.076 231.755C388.081 228.439 387.303 225.169 385.806 222.209L373.543 226.021L384.309 219.694C382.503 217.088 380.134 214.92 377.378 213.351C374.622 211.781 371.549 210.85 368.385 210.626C367.881 209.862 367.329 209.132 366.73 208.44L349.12 213.919L363.565 205.429C360.802 203.31 357.558 201.903 354.122 201.335C350.685 200.767 347.162 201.054 343.863 202.171C340.563 203.288 337.591 205.2 335.207 207.739C332.824 210.277 331.103 213.364 330.198 216.725L345.283 234.08L328.919 222.251C324.773 225.189 321.822 229.518 320.603 234.449C319.384 239.379 319.978 244.584 322.277 249.113C324.576 253.643 328.426 257.197 333.127 259.127C337.828 261.056 343.066 261.234 347.887 259.628C352.248 261.23 357.014 261.362 361.457 260.003C364.554 260.684 367.765 260.663 370.853 259.94C373.941 259.218 376.827 257.813 379.3 255.828C381.773 253.844 383.769 251.331 385.142 248.474C386.515 245.616 387.229 242.488 387.233 239.318C387.233 238.855 387.233 238.392 387.187 237.929C387.787 235.926 388.087 233.846 388.076 231.755Z" fill="#F9A826"/>
<path opacity="0.1" d="M387.71 235.683C381.234 234.456 374.594 234.371 368.088 235.432C360.724 236.651 353.198 239.328 345.996 237.373C341.77 236.224 338.118 233.566 333.989 232.088C330.005 230.699 325.713 230.443 321.592 231.347C320.021 235.102 319.566 239.229 320.279 243.236C320.993 247.243 322.846 250.959 325.617 253.942C328.387 256.924 331.958 259.046 335.904 260.055C339.849 261.063 344.001 260.915 347.864 259.628C352.225 261.23 356.991 261.362 361.433 260.003C364.531 260.684 367.741 260.663 370.829 259.94C373.917 259.218 376.804 257.813 379.277 255.828C381.75 253.844 383.746 251.331 385.119 248.474C386.492 245.616 387.206 242.488 387.21 239.318C387.21 238.855 387.21 238.392 387.163 237.929C387.387 237.191 387.57 236.441 387.71 235.683Z" fill="black"/>
</g>
<defs>
<clipPath id="clip0_371_585">
<rect width="507" height="352" fill="white" transform="translate(-8)"/>
</clipPath>
</defs>
</svg>
