<svg width="328" height="278" viewBox="0 0 328 278" fill="none" xmlns="http://www.w3.org/2000/svg">
<g clip-path="url(#clip0_371_659)">
<path d="M316.194 227.479H11.806C5.29627 227.479 0 222.179 0 215.665V179.004H328V215.665C328 222.179 322.704 227.479 316.194 227.479Z" fill="#E6E6E6"/>
<path d="M203.395 221.346H125.772V276.829H203.395V221.346Z" fill="#E6E6E6"/>
<path d="M208.064 269.821H121.103V276.829H208.064V269.821Z" fill="#E6E6E6"/>
<path d="M327.708 194.481H0V8.10737C0 3.63706 3.63458 0 8.10185 0H319.606C324.074 0 327.708 3.63706 327.708 8.10737V194.481Z" fill="#2F2E41"/>
<path d="M319.829 8.46851H7.58725V184.261H319.829V8.46851Z" fill="white"/>
<path d="M68.0565 113.245C70.4464 111.269 73.4024 110.901 74.6589 112.424C75.9154 113.946 74.9964 116.781 72.6054 118.757C71.6612 119.56 70.5386 120.125 69.3315 120.404L59.1 128.649L55.3361 123.762L65.8221 116.153C66.3242 115.019 67.0904 114.022 68.0565 113.245Z" fill="#FFB6B6"/>
<path d="M8.91972 131.847C8.91453 131.483 8.91795 128.302 11.2709 126.292C13.9738 123.983 17.7878 124.917 19.1255 125.245C22.2157 126.003 22.4691 127.329 25.3711 128.692C30.8004 131.242 23.9977 129.937 27.2283 129.119C28.3465 128.836 44.4341 127.72 48.4386 125.253C56.2269 120.456 61.5336 117.548 61.5336 117.548L65.0026 124.49C65.0026 124.49 59.9864 131.47 52.9264 136.641C45.6844 141.945 42.0634 144.597 36.5605 145.622C36.0867 145.71 24.4319 147.701 15.045 140.683C12.9039 139.083 8.98085 136.15 8.91972 131.847Z" fill="#6C63FF"/>
<path d="M19.681 114.19C26.3552 114.19 31.7658 108.776 31.7658 102.097C31.7658 95.4182 26.3552 90.0039 19.681 90.0039C13.0067 90.0039 7.59613 95.4182 7.59613 102.097C7.59613 108.776 13.0067 114.19 19.681 114.19Z" fill="#FFB6B6"/>
<path d="M114.325 183.343L101.879 170.595L95.4547 177.301L104.727 189.524L113.925 190.577L114.325 183.343Z" fill="#FFB6B6"/>
<path d="M43.2593 159.437C43.9873 159.498 46.3006 159.961 48.5117 158.744C50.0207 157.913 50.7946 156.678 51.056 156.285C54.2987 151.411 66.7453 143.812 77.9157 143.344C80.4453 143.238 82.1104 143.531 83.6238 144.321C85.7698 145.44 86.6265 147.044 89.3497 150.8C90.8393 152.854 92.4876 154.79 93.9951 156.832C102.821 168.784 106.167 169.722 105.825 173.554C105.446 177.805 100.864 181.839 97.8183 181.373C96.5711 181.182 96.0881 180.314 94.4219 178.558C89.5362 173.407 87.5149 174.358 84.0365 170.413C79.9754 165.807 80.5071 161.987 78.3883 161.84C76.4235 161.703 75.5885 164.961 71.3938 169.29C69.4743 171.27 68.1075 172.179 63.9434 175.069C47.7275 186.327 47.4687 187.118 44.1961 188.016C42.7643 188.409 32.602 191.197 28.9819 186.76C23.3169 179.817 36.7001 158.892 43.2593 159.437Z" fill="#2F2E41"/>
<path d="M110.52 186.224C111.435 185.813 112.506 185.332 112.85 184.226C113.083 183.477 112.949 182.555 112.467 181.917C111.911 181.182 111.089 181.085 111.122 180.954C111.173 180.756 113.118 180.834 115.253 181.589C115.656 181.731 117.481 182.399 119.803 184.213C121.663 185.666 121.413 185.957 122.579 186.795C126.16 189.367 129.518 187.34 131.456 189.752C132.204 190.683 132.523 192.005 132.208 193.074C131.576 195.22 128.503 195.959 126.823 196.34C122.778 197.259 119.716 196.509 116.519 195.97C105.647 194.136 99.5376 195.806 98.72 193.285C98.5652 192.808 98.8166 192.849 99.655 189.348C100.482 185.893 100.455 184.944 101.16 184.667C102.221 184.251 102.933 186.145 105.605 186.794C107.973 187.368 109.927 186.49 110.52 186.224Z" fill="#2F2E41"/>
<path d="M92.1985 225.048L89.054 207.506L79.9748 209.445L80.7881 224.769L87.8079 230.808L92.1985 225.048Z" fill="#FFB6B6"/>
<path d="M46.8101 165.333C47.3785 165.792 49.0324 167.476 51.5451 167.711C53.2599 167.872 54.5934 167.285 55.0302 167.106C60.4483 164.896 75.0119 165.601 84.5173 171.491C86.6699 172.825 87.8831 174.003 88.6924 175.507C89.8399 177.639 89.649 179.447 89.7945 184.086C89.8741 186.623 90.1517 189.151 90.2535 191.687C90.8496 206.536 93.0917 209.193 90.6585 212.171C87.9588 215.476 81.9041 216.239 79.6455 214.142C78.7205 213.284 78.8079 212.294 78.4149 209.904C77.2628 202.897 75.0563 202.548 74.392 197.329C73.6165 191.235 76.1997 188.374 74.5293 187.061C72.9803 185.844 70.461 188.071 64.5612 189.295C61.8615 189.855 60.2207 189.839 55.153 189.891C35.4179 190.094 34.7598 190.603 31.5481 189.507C30.1429 189.028 20.1696 185.624 19.6639 179.919C18.8725 170.991 41.6887 161.196 46.8101 165.333Z" fill="#2F2E41"/>
<path d="M87.4335 225.293C88.4216 225.467 89.5771 225.671 90.4826 224.949C91.0954 224.461 91.5021 223.622 91.4614 222.824C91.4144 221.903 90.7882 221.361 90.8888 221.272C91.042 221.136 92.6078 222.293 93.9507 224.118C94.2041 224.462 95.3398 226.04 96.2432 228.845C96.9669 231.093 96.5963 231.194 97.0913 232.542C98.6107 236.683 102.527 236.893 102.777 239.977C102.873 241.168 102.395 242.441 101.535 243.148C99.8079 244.569 96.8505 243.453 95.2467 242.825C91.3842 241.312 89.2715 238.971 86.9286 236.729C78.9608 229.102 72.969 227.051 73.7069 224.506C73.8466 224.024 74.0318 224.199 76.69 221.773C79.3136 219.379 79.8236 218.579 80.5619 218.746C81.6734 218.997 81.1996 220.965 83.0468 223.003C84.6837 224.809 86.7931 225.181 87.4335 225.293Z" fill="#2F2E41"/>
<path d="M21.3285 104.409C21.799 102.725 21.2081 102.111 21.8104 101.355C21.8104 101.355 22.0528 101.051 24.2196 100.23C23.5803 96.5181 24.059 95.8905 24.059 95.8905C24.6107 95.1671 25.7158 94.9922 26.4682 95.0869C28.0594 95.287 28.3411 96.7264 29.3592 96.6941C30.7657 96.6495 32.4526 93.8321 31.929 91.3902C31.5019 89.3984 29.6603 87.9191 29.1986 88.1758C28.7409 88.4303 27.0931 87.308 26.4682 87.5329C26.0414 87.6864 24.0326 87.4822 23.5771 87.6936C23.0797 87.9246 21.6552 89.3624 21.519 89.1812C20.5726 87.9223 20.5927 87.4828 20.0436 87.2114C19.0707 86.7307 18.0129 87.6193 16.1889 88.4972C12.4361 90.3036 11.3372 89.2261 9.60379 90.7473C8.72814 91.5158 8.25858 92.9845 7.3552 95.8905C6.09183 99.9545 5.46015 101.986 6.0703 103.927C6.69253 105.905 7.60885 105.475 8.96134 108.266C10.4669 111.374 9.94796 113.18 11.3705 113.891C12.47 114.441 14.2369 114.091 14.904 113.088C16.0462 111.37 13.094 109.045 14.101 106.337C14.7191 104.675 16.6258 103.415 17.7951 103.766C19.1172 104.163 19.2145 106.535 20.0437 106.498C20.7536 106.467 21.2466 104.702 21.3285 104.409Z" fill="#2F2E41"/>
<path d="M12.1736 115.981C14.6466 113.206 24.7197 116.078 25.6651 120.481C26.054 122.292 24.6184 123.057 25.0227 125.142C25.614 128.192 28.962 127.984 31.4472 131.089C34.9754 135.496 31.3406 139.805 35.3019 147.161C36.1484 148.733 36.8618 150.058 38.3536 151.34C41.7767 154.282 44.9624 153.273 46.7055 156.001C48.0089 158.041 47.4734 160.555 47.3479 161.144C46.8335 163.559 45.4393 164.147 44.4569 166.126C42.8224 169.419 44.673 171.836 44.7781 175.77C44.9096 180.691 42.2958 187.514 37.0687 189.752C31.1962 192.267 24.1135 188.102 20.6861 183.966C18.641 181.499 18.0473 179.222 17.1526 176.412C13.154 163.855 10.8949 164.991 7.83705 155.036C4.34133 143.657 3.65412 130.325 7.83705 126.106C8.39148 125.547 9.91728 124.255 10.8887 121.927C12.1959 118.796 11.0666 117.223 12.1736 115.981Z" fill="#6C63FF"/>
<path d="M48.7145 180.572C50.6318 183.01 50.929 185.976 49.3785 187.197C47.8279 188.417 45.0172 187.431 43.0996 184.992C42.3202 184.028 41.7827 182.892 41.5322 181.677L33.5388 171.246L37.6691 168.093L45.8629 178.268C46.9837 178.797 47.9615 179.587 48.7145 180.572Z" fill="#FFB6B6"/>
<path d="M19.4397 126.555C19.7953 126.476 22.9075 125.83 25.3542 127.725C28.1647 129.902 28.0286 133.829 27.9809 135.206C27.8706 138.388 26.6246 138.907 25.8833 142.028C24.4965 147.867 27.1376 153.293 28.5967 156.291C29.1017 157.329 30.7243 160.504 33.9543 163.924C40.2362 170.575 45.8412 174.074 45.8412 174.074L39.8198 179.43C39.8198 179.43 30.2284 176.505 23.7293 170.644C17.0628 164.632 6.81076 143.36 4.68549 138.178C4.50246 137.732 7.09501 144.987 12.0451 134.359C13.1742 131.935 15.243 127.493 19.4397 126.555Z" fill="#6C63FF"/>
<path d="M173.551 121.566L166.362 118.158C169.31 122.276 171.851 128.707 173.212 133.825C175.515 129.058 179.228 123.225 182.903 119.741L175.304 121.697C179.986 98.7341 197.597 82.2493 217.764 82.2493L218.049 81.4199C196.985 81.4199 178.332 97.6762 173.551 121.566Z" fill="#3F3D56"/>
<path d="M206.641 156.553H161.216C159.289 156.553 157.721 154.985 157.721 153.057C157.721 151.129 159.289 149.56 161.216 149.56H206.641C208.568 149.56 210.135 151.129 210.135 153.057C210.135 154.985 208.568 156.553 206.641 156.553Z" fill="#F9A826"/>
<path d="M267.085 156.553H221.66C219.733 156.553 218.166 154.985 218.166 153.057C218.166 151.129 219.733 149.56 221.66 149.56H267.085C269.012 149.56 270.58 151.129 270.58 153.057C270.58 154.985 269.012 156.553 267.085 156.553Z" fill="#E6E6E6"/>
<path d="M240.194 61.43H196.038C194.925 61.43 194.019 60.5236 194.019 59.4096C194.019 58.2956 194.925 57.3896 196.038 57.3896H240.194C241.307 57.3896 242.213 58.2956 242.213 59.4096C242.213 60.5236 241.307 61.43 240.194 61.43Z" fill="#3F3D56"/>
<path d="M263.889 82.9837H172.344C171.231 82.9837 170.325 82.0773 170.325 80.9633C170.325 79.8494 171.231 78.9434 172.344 78.9434H263.889C265.002 78.9434 265.907 79.8494 265.907 80.9633C265.907 82.0773 265.002 82.9837 263.889 82.9837Z" fill="#3F3D56"/>
<path d="M19.8483 277.346C19.8483 277.709 20.1396 278 20.5023 278H307.498C307.86 278 308.152 277.709 308.152 277.346C308.152 276.983 307.86 276.691 307.498 276.691H20.5023C20.1396 276.691 19.8483 276.983 19.8483 277.346Z" fill="white"/>
<path d="M90.3199 122.234C90.2421 122.234 90.1644 122.231 90.0862 122.226C85.4876 121.931 69.7523 119.703 60.3584 103.449C59.5842 102.111 59.7368 100.41 60.7376 99.2162L78.1347 78.4742C78.8461 77.6259 79.9451 77.1372 81.0582 77.1507C81.8274 77.169 83.6489 77.3634 84.0026 78.7685C86.0925 87.0696 94.9173 96.83 105.53 98.1238C106.606 98.2546 107.47 99.215 107.84 100.693C108.13 101.843 107.862 103.029 107.107 103.946L93.1704 120.881C92.4625 121.741 91.4235 122.234 90.3199 122.234ZM80.9914 77.9851C80.1412 77.9851 79.3143 78.3662 78.7738 79.0106L61.3769 99.7526C60.6006 100.678 60.4816 101.996 61.0804 103.031C70.2671 118.926 85.6456 121.104 90.14 121.393C91.0577 121.455 91.939 121.063 92.5264 120.35L106.463 103.415C107.048 102.705 107.255 101.787 107.031 100.896C106.813 100.024 106.277 99.0556 105.429 98.9521C94.4655 97.6159 85.3509 87.5408 83.1936 78.9723C83.0189 78.2785 81.9669 78.0075 81.0409 77.9855C81.0244 77.9851 81.0079 77.9851 80.9914 77.9851Z" fill="#3F3D56"/>
<path d="M70.9011 104.132L83.4436 91.3348C84.3009 90.46 82.9577 89.1137 82.0993 89.9896L69.5568 102.787C68.6994 103.662 70.0426 105.008 70.9011 104.132Z" fill="#E6E6E6"/>
<path d="M78.4712 107.737C81.9328 104.633 84.9409 101.038 87.404 97.0933C88.0542 96.0521 86.41 95.096 85.7624 96.1331C83.3811 99.9467 80.473 103.391 77.1269 106.392C76.2139 107.211 77.5621 108.553 78.4712 107.737Z" fill="#E6E6E6"/>
<path d="M85.294 112.054C88.4456 108.561 91.1284 104.662 93.2405 100.456C93.7884 99.3649 92.149 98.4005 91.5989 99.4958C89.5583 103.559 86.9954 107.333 83.9497 110.709C83.1317 111.616 84.4721 112.966 85.294 112.054Z" fill="#E6E6E6"/>
<path d="M79.9204 89.0156C86.9042 89.0156 92.5657 83.4696 92.5657 76.6283C92.5657 69.787 86.9042 64.241 79.9204 64.241C72.9365 64.241 67.275 69.787 67.275 76.6283C67.275 83.4696 72.9365 89.0156 79.9204 89.0156Z" fill="#F9A826"/>
<path d="M86.5001 82.5044C84.5553 77.7196 82.6104 72.9348 80.6656 68.15C80.397 67.4891 79.5556 67.4657 79.2935 68.15C77.3719 73.1664 76.1162 78.4009 75.5125 83.738C75.4097 84.6471 76.8335 84.6398 76.9355 83.738C77.1717 81.6495 77.5224 79.5766 77.9727 77.5258C79.5752 77.61 81.1909 77.4301 82.7374 77.0016C83.5343 78.9621 84.3311 80.9225 85.1279 82.8829C85.4684 83.7206 86.8455 83.3542 86.5001 82.5044ZM78.2953 76.1181C78.7746 74.1549 79.3493 72.2149 80.016 70.3062L82.1969 75.6719C80.9195 76.0074 79.6131 76.1567 78.2953 76.1181Z" fill="white"/>
</g>
<defs>
<clipPath id="clip0_371_659">
<rect width="328" height="278" fill="white"/>
</clipPath>
</defs>
</svg>
