<svg width="375" height="477" viewBox="0 0 375 477" fill="none" xmlns="http://www.w3.org/2000/svg">
<path d="M409.107 272.297C435.871 235.683 447.175 197.486 440.937 164.742C432.932 122.722 397.37 93.6691 343.37 85.0322L343.17 87.4426C396.419 95.9587 431.439 124.36 439.25 165.363C445.32 197.229 434.181 234.592 407.882 270.569L409.107 272.297Z" fill="#F0F0F0"/>
<path d="M150.88 402.265C184.283 402.265 220.582 395.367 256.636 382.103C301.222 365.7 342.103 340.941 374.859 310.502L373.889 308.486C341.291 338.777 300.591 363.423 256.19 379.758C216.064 394.52 175.638 401.361 139.296 399.555L139.233 401.979C143.071 402.171 146.953 402.266 150.88 402.265Z" fill="#F0F0F0"/>
<path d="M74.2493 387.011L74.8084 384.713C44.9339 370.677 26.2486 348.065 20.7725 319.321C13.8116 282.781 28.9342 240.378 63.355 199.923C97.9513 159.263 147.84 125.526 203.833 104.927L203.386 102.582C147.149 123.271 97.0172 157.184 62.2282 198.071C27.2637 239.164 11.9416 282.445 19.0849 319.942C24.7178 349.51 43.7935 372.702 74.2493 387.011Z" fill="#F0F0F0"/>
<path d="M348.567 403.28C414.202 362.826 464.779 310.343 490.98 255.497L489.526 254.155C463.506 308.622 413.195 360.794 347.859 401.062L348.567 403.28Z" fill="#F0F0F0"/>
<path d="M117.799 473.361C124.569 473.361 131.455 473.151 138.456 472.731L138.381 470.308C86.1331 473.451 40.0339 464.762 5.05833 445.175L4.40546 447.426C34.9158 464.51 73.8035 473.361 117.799 473.361Z" fill="#F0F0F0"/>
<path d="M155.881 87.2076C166.73 82.2993 177.888 77.7291 189.047 73.6239C253.26 50.0003 316.382 41.6127 371.591 49.3725L371.767 46.9586C316.351 39.1733 253.013 47.5811 188.6 71.2787C177.41 75.3958 166.22 79.979 155.341 84.9015L155.881 87.2076Z" fill="#F0F0F0"/>
<path d="M191.9 405.904C225.303 405.904 261.602 399.006 297.656 385.741C342.243 369.338 383.124 344.579 415.879 314.14L414.909 312.125C382.311 342.416 341.612 367.062 297.21 383.396C257.084 398.159 216.658 404.999 180.316 403.194L180.253 405.617C184.091 405.809 187.974 405.905 191.9 405.904Z" fill="#F0F0F0"/>
<path d="M115.27 390.65L115.829 388.352C85.9541 374.315 67.2688 351.704 61.7927 322.96C54.8318 286.419 69.9544 244.016 104.375 203.562C138.972 162.902 188.86 129.164 244.853 108.565L244.406 106.22C188.169 126.91 138.037 160.822 103.248 201.71C68.2839 242.803 52.9618 286.084 60.1051 323.58C65.738 353.149 84.8138 376.34 115.27 390.65Z" fill="#F0F0F0"/>
<path d="M158.819 477C165.589 477 172.475 476.79 179.476 476.37L179.401 473.947C127.153 477.09 81.0542 468.401 46.0786 448.814L45.4257 451.064C75.936 468.149 114.824 477 158.819 477Z" fill="#F0F0F0"/>
<path d="M196.902 90.846C207.75 85.9377 218.908 81.3676 230.067 77.2623C294.28 53.6387 357.402 45.2511 412.612 53.0109L412.787 50.597C357.372 42.8117 294.034 51.2195 229.62 74.9171C218.43 79.0342 207.24 83.6174 196.361 88.5399L196.902 90.846Z" fill="#F0F0F0"/>
<path d="M10.7415 371.179C17.8286 346.913 33.793 326.348 52.5956 324.595C40.8748 347.614 35.2993 376.535 37.1694 404.615C37.8977 415.551 39.5272 427.61 35.1033 436.712C33.9077 439.217 32.1961 441.442 30.0807 443.24C27.9652 445.038 25.4936 446.369 22.8278 447.145C18.0153 448.553 13.039 448.225 8.12704 447.89L7.01072 448.6C4.10002 422.726 3.65441 395.445 10.7415 371.179Z" fill="#F2F2F2"/>
<path d="M52.675 325.133C39.765 336.888 29.4736 354.45 24.0432 374.561C22.7738 378.98 22.0224 383.532 21.8041 388.124C21.6708 392.578 22.4194 397.013 24.007 401.176C25.4074 404.946 27.1539 408.576 27.8706 412.753C28.5792 417.008 27.935 421.379 26.0286 425.249C23.8111 429.78 20.5544 432.933 17.2926 435.862C13.6709 439.115 9.87201 442.414 7.58688 447.663C7.31002 448.299 6.61601 447.665 6.89247 447.03C10.8682 437.897 18.8701 434.848 23.8889 427.158C26.5039 423.314 27.6807 418.672 27.2126 414.047C26.6915 409.736 24.8927 405.99 23.4511 402.19C21.8567 398.16 21.0108 393.873 20.955 389.54C21.0052 384.936 21.6285 380.357 22.8106 375.907C25.2123 366.33 28.8222 357.096 33.5535 348.429C38.415 339.338 44.7517 331.116 52.3054 324.099C52.7514 323.693 53.1181 324.73 52.675 325.133Z" fill="white"/>
<path d="M25.5602 367.895C20.7801 364.307 18.578 356.294 20.3926 349.19C20.5714 348.49 21.3624 348.843 21.1834 349.544C19.4834 356.199 21.5476 363.576 26.0159 366.93C26.4861 367.283 26.0277 368.246 25.5602 367.895Z" fill="white"/>
<path d="M23.1158 399.395C28.2912 397.377 32.7753 392.625 35.5719 386.252C35.8504 385.617 36.5445 386.251 36.2663 386.885C33.3529 393.524 28.6689 398.425 23.2846 400.525C22.769 400.726 22.603 399.595 23.1158 399.395Z" fill="white"/>
<path d="M39.3007 340.226C40.9079 342.13 43.1204 342.797 45.1483 341.967C45.6618 341.757 45.8273 342.889 45.3171 343.097C43.1078 344.001 40.5986 343.269 38.845 341.191C38.7513 341.082 38.6903 340.95 38.6692 340.808C38.648 340.667 38.6676 340.522 38.7256 340.392C38.8351 340.154 39.13 340.023 39.3007 340.226Z" fill="white"/>
<path d="M96.4609 388.986C96.143 389.13 95.8251 389.274 95.5049 389.427C91.1423 391.448 86.9902 393.894 83.1092 396.732C82.7987 396.949 82.4864 397.175 82.1811 397.405C72.6696 404.502 64.1045 414.07 57.0915 425.487C54.2387 430.146 51.6954 434.986 49.4782 439.978C46.344 447.01 43.3484 454.982 38.8577 460.016C38.4036 460.538 37.916 461.03 37.3979 461.489L7.72057 450.437C7.66219 450.365 7.60168 450.302 7.54297 450.23L6.34354 449.864C6.44739 449.59 6.55935 449.309 6.6632 449.035C6.72297 448.876 6.78935 448.719 6.84913 448.56C6.89107 448.454 6.93335 448.349 6.96686 448.251C6.98072 448.215 6.99492 448.18 7.00696 448.155C7.04047 448.056 7.07912 447.97 7.11082 447.881C7.73348 446.307 8.36519 444.737 9.00595 443.171C9.00777 443.161 9.00778 443.161 9.0162 443.154C13.9203 431.235 19.5836 419.779 26.3181 409.882C26.5208 409.585 26.7249 409.277 26.9412 408.985C29.9062 404.656 33.2152 400.573 36.8359 396.775C38.7405 394.796 40.7516 392.922 42.8605 391.163C47.951 386.865 53.8261 383.593 60.1613 381.53C72.3114 377.684 85.2115 379.281 95.667 388.287C95.9343 388.518 96.1954 388.746 96.4609 388.986Z" fill="#F2F2F2"/>
<path d="M96.2933 389.485C80.8927 388.069 65.0668 393.481 52.0177 404.995C49.0068 407.558 46.4202 410.581 44.3539 413.951C42.2136 417.723 40.8866 421.9 40.4581 426.215C39.9431 430.397 39.7648 434.757 38.5273 438.691C37.223 442.839 34.6941 445.687 31.6428 447.128C27.9094 448.89 23.9431 448.682 20.0694 448.292C15.7684 447.86 11.306 447.315 7.20718 449.595C6.71055 449.871 6.43121 448.784 6.92708 448.508C14.0583 444.542 21.7683 448.803 29.1074 446.861C31.0241 446.369 32.7887 445.409 34.2432 444.068C35.6976 442.726 36.7964 441.045 37.4412 439.174C38.8931 435.296 39.0798 430.8 39.5749 426.56C40.0948 422.108 41.1136 418.021 43.0627 414.371C44.9901 410.872 47.4868 407.718 50.4504 405.039C56.403 399.473 63.3519 395.079 70.933 392.087C79.0263 388.857 87.7663 387.577 96.4461 388.35C96.9781 388.399 96.8218 389.534 96.2933 389.485Z" fill="white"/>
<path d="M56.1172 400.941C53.8551 394.077 55.5684 385.837 60.0951 381.683C60.541 381.274 61.0196 382.218 60.573 382.627C56.3323 386.519 54.7846 394.136 56.8991 400.552C57.1217 401.227 56.3385 401.613 56.1172 400.941Z" fill="white"/>
<path d="M40.5183 424.047C42.9115 425.38 45.6081 426.074 48.3477 426.061C51.0873 426.049 53.7774 425.33 56.1581 423.975C56.6554 423.701 56.9349 424.788 56.4382 425.061C53.9571 426.465 51.1556 427.206 48.3047 427.211C45.4537 427.216 42.6496 426.486 40.1634 425.091C39.6647 424.82 40.0222 423.778 40.5183 424.047Z" fill="white"/>
<path d="M79.0759 390.346C79.5339 393.211 81.0119 395.594 82.9904 396.629C83.4914 396.891 83.1333 397.932 82.6356 397.672C80.48 396.545 78.7937 393.861 78.2939 390.735C78.2553 390.601 78.2586 390.458 78.3035 390.326C78.3483 390.194 78.4326 390.079 78.5449 389.997C78.6028 389.977 78.6648 389.97 78.7258 389.977C78.7868 389.985 78.8452 390.006 78.8966 390.04C78.948 390.074 78.9909 390.119 79.0219 390.172C79.053 390.225 79.0715 390.284 79.0759 390.346Z" fill="white"/>
<path d="M123.504 288.546C127.36 288.546 130.486 284.202 130.486 278.843C130.486 273.484 127.36 269.14 123.504 269.14C119.648 269.14 116.522 273.484 116.522 278.843C116.522 284.202 119.648 288.546 123.504 288.546Z" fill="#E6E6E6"/>
<path d="M118.982 135.406C122.838 135.406 125.964 131.062 125.964 125.703C125.964 120.344 122.838 116 118.982 116C115.126 116 112 120.344 112 125.703C112 131.062 115.126 135.406 118.982 135.406Z" fill="#E6E6E6"/>
<path d="M229.719 427.263C235.261 427.516 240.681 425.582 244.811 421.877C248.94 418.172 251.447 412.993 251.792 407.458C251.865 406.234 251.829 405.006 251.686 403.788L318.43 370.76L285.314 351.474L227.01 385.795C221.537 386.866 216.706 390.046 213.561 394.649C210.416 399.252 209.209 404.907 210.201 410.393C211.058 415.001 213.456 419.181 217.003 422.247C220.549 425.313 225.034 427.081 229.719 427.263Z" fill="#9E616A"/>
<path d="M251.026 369.247L251.958 371.11L253.09 373.354L259.28 385.699L261.467 390.039V390.045L263.401 393.906L265.044 397.178L265.186 397.456L267.58 402.229L276.087 398.025L331.887 370.444L386.97 343.211L392.456 340.502L390.237 331.196L365.933 229.386C364.337 222.693 360.175 216.894 354.343 213.239C348.511 209.585 341.477 208.366 334.755 209.847C328.033 211.328 322.162 215.389 318.407 221.156C314.652 226.923 313.314 233.934 314.68 240.678L329.921 315.947L314.602 324.405L295.357 335.031L289.535 346.413L277.309 344.304L267.612 353.507L263.783 357.141L251.026 369.247Z" fill="#3F3D56"/>
<path d="M115.703 412.317C119.164 415.24 122.715 418.056 126.357 420.763C147.647 436.617 171.664 448.434 197.218 455.627H197.224C200.158 457.243 203.454 458.089 206.805 458.084C223.056 461.853 239.686 463.752 256.369 463.743C260.031 463.743 263.679 463.652 267.295 463.471L266.959 446.081L266.823 439.039L244.602 422.057L239.958 418.506L238.198 417.155L236.82 416.101L214.677 399.177L214.347 399.222L211.022 399.662L204.56 400.522L197.418 401.466L180.567 403.703H180.56L173.237 404.68L115.703 412.317Z" fill="#2F2E41"/>
<path d="M225.588 149.681C250.465 149.681 270.632 129.521 270.632 104.651C270.632 79.7817 250.465 59.6211 225.588 59.6211C200.712 59.6211 180.545 79.7817 180.545 104.651C180.545 129.521 200.712 149.681 225.588 149.681Z" fill="#FFB6B6"/>
<path d="M111.071 408.288C112.598 409.653 114.142 410.996 115.703 412.317C119.164 415.24 122.715 418.056 126.357 420.763C143.539 417.62 171.433 413.637 198.091 414.704C199.249 414.755 200.4 414.814 201.552 414.878H201.558C205.077 415.079 208.571 415.376 211.999 415.784H212.006C215.311 416.172 218.554 416.665 221.735 417.265C225.571 417.981 229.366 418.907 233.101 420.039C234.323 420.408 235.522 420.804 236.697 421.229C236.982 421.326 237.267 421.423 237.545 421.533C239.285 422.167 240.973 422.854 242.61 423.596H242.616C253.161 428.375 261.506 435.385 266.098 445.396C266.159 445.582 266.273 445.745 266.426 445.867C266.579 445.989 266.764 446.063 266.959 446.081H266.998C267.078 446.081 267.159 446.07 267.237 446.049C268.072 445.816 268.725 445.635 265.723 419.69L262.554 399.649L262.482 399.183L262.599 398.517L262.625 398.375L263.401 393.906L264.669 386.656V386.65L265.646 381.075L270.342 376.38L270.963 375.76L262.418 367.217L262.709 365.076L262.748 364.759L263.783 357.141L265.782 342.325L266.732 335.283L267.095 332.644L267.573 329.081L267.657 328.46L268.938 321.676L281.896 253.262C284.343 240.287 282.441 226.867 276.483 215.082C270.525 203.297 260.845 193.807 248.943 188.082L238.373 162.059L186.783 161.671L167.047 183.148L128.227 196.327L123.375 197.976L130.62 347.725L111.304 359.573L111.744 359.967C111.776 360 115.16 363.059 116.68 364.74C117.391 365.749 116.117 373.102 114.487 379.588C114.435 379.795 114.377 380.008 114.325 380.215L112.139 396.577L117.65 400.515L111.071 408.288Z" fill="#6C63FF"/>
<path d="M189.798 448.435C191.587 451.449 194.149 453.932 197.218 455.627H197.224C200.158 457.243 203.454 458.089 206.805 458.084C209.749 458.07 212.654 457.417 215.32 456.168C217.986 454.92 220.349 453.106 222.243 450.854C224.138 448.601 225.52 445.964 226.294 443.124C227.067 440.284 227.213 437.311 226.722 434.409C226.585 433.602 226.397 432.805 226.16 432.022C225.818 430.9 225.378 429.809 224.846 428.763L226.612 426.894L229.62 423.712L233.101 420.039L236.82 416.101L238.133 414.71L260.568 390.989L261.467 390.045V390.039L264.669 386.657V386.65L273.809 376.988L270.342 376.381L257.223 374.078L253.09 373.354L249.279 372.688L237.687 370.651L224.872 386.34L218.468 394.178L214.347 399.222L209.942 404.615L208.467 406.413L201.558 414.878H201.552L198.253 418.92L196.726 420.789C192.169 423.563 188.888 428.019 187.591 433.192C186.295 438.366 187.087 443.842 189.798 448.435Z" fill="#FFB6B6"/>
<path d="M203.033 401.97L208.467 406.413L209.864 407.558H209.871L221.735 417.265L229.62 423.712L231.69 425.407L236.697 421.229L237.829 420.285L239.958 418.506L251.666 408.735L262.554 399.649L262.851 399.403L265.186 397.456L266.195 396.609H266.202L266.215 396.596L277.238 387.394L296.593 371.239L305.908 363.466L318.29 353.132L314.602 324.406L307.37 268.001L286.094 224.077C285.505 222.861 284.871 221.671 284.192 220.52C277.755 209.597 267.375 201.556 255.187 198.053C242.999 194.55 229.932 195.851 218.675 201.688L218.358 201.85L218.261 202.193C217.879 203.577 209.405 236.61 255.645 296.048L266.681 331.325L267.095 332.644L269.126 339.15L268.835 339.422L265.781 342.326L236.878 369.804L214.114 391.436L204.56 400.522L203.033 401.97Z" fill="#6C63FF"/>
<path d="M218.592 436.232C213.283 436.314 208.154 434.307 204.312 430.643C200.47 426.98 198.222 421.953 198.053 416.648C198.019 415.475 198.088 414.302 198.261 413.141L135.377 379.612L167.614 362.125L222.387 396.646C227.59 397.829 232.119 401.011 234.994 405.505C237.869 409.999 238.859 415.444 237.75 420.662C236.798 425.045 234.382 428.974 230.901 431.804C227.419 434.633 223.079 436.195 218.592 436.232Z" fill="#FFB6B6"/>
<path d="M83.1449 286.936L94.6725 371.123L114.487 379.588L173.237 404.68L190.703 412.136L192.127 409.873L197.418 401.466L206.688 386.753L210.427 380.81L142.025 342.241L141.1 297.096C166.044 226.05 147.511 197.414 146.708 196.23L146.508 195.933L146.159 195.881C139.615 194.835 132.927 195.122 126.497 196.726C120.067 198.329 114.028 201.216 108.742 205.213C103.431 209.172 98.9744 214.164 95.6416 219.888C92.3088 225.613 90.1683 231.952 89.3486 238.524L83.1449 286.936Z" fill="#6C63FF"/>
<path d="M185.628 64.0631C189.542 52.6816 209.023 44.7873 240.604 43.6896C272.186 42.5918 280.196 79.7983 280.196 79.7983C301.279 96.8959 257.683 142.67 255.574 141.022L256.522 132.422C258.093 118.177 264.765 107.062 256.279 92.2159L248.131 92.3095C237.607 94.3325 227.083 96.3556 216.559 98.3786C220.712 94.7231 224.865 91.0675 229.018 87.412L228.667 86.8685C223.222 89.3656 217.612 91.6812 211.66 92.0309C204.964 92.4244 197.643 89.7601 194.435 83.8703C193.579 82.2514 193.055 80.4774 192.896 78.653C183.866 82.2598 179.737 93.3888 179.737 93.3888C179.737 93.3888 181.715 75.4446 185.628 64.0631Z" fill="#2F2E41"/>
<path d="M268.977 463.381C309.898 461.079 349.328 447.233 382.701 423.447C383.677 422.749 384.648 422.044 385.612 421.332L368.003 369.623L331.887 370.444L318.406 370.748L296.593 371.239L278.952 371.64L277.238 387.394L276.811 391.358L276.086 398.025L273.758 419.425L268.977 463.381Z" fill="#2F2E41"/>
<path d="M257.999 367.708C257.126 368.581 256.926 370.851 257.223 374.078C257.659 377.992 258.346 381.874 259.28 385.699C259.668 387.394 260.102 389.166 260.568 390.989C261.182 393.389 261.855 395.872 262.566 398.401C262.574 398.44 262.585 398.479 262.599 398.517C262.683 398.814 262.761 399.112 262.851 399.403C264.397 404.88 266.118 410.513 267.8 415.829C268.122 416.864 268.768 417.768 269.642 418.408C270.517 419.048 271.574 419.391 272.658 419.386H272.755L273.758 419.425L382.701 423.447C383.677 422.749 384.648 422.044 385.612 421.332C387.158 420.194 388.689 419.035 390.204 417.853C390.079 417.317 389.874 416.802 389.596 416.327L390.075 415.926L389.422 415.156C388.012 413.488 384.887 406.083 385.573 404.893L395.03 395.439C395.443 395.054 395.767 394.584 395.98 394.061C396.192 393.539 396.287 392.976 396.259 392.412C396.085 389.179 391.919 385.809 388.238 382.835C386.97 381.806 385.773 380.836 384.893 379.989C384.693 379.795 384.35 379.427 384.363 379.136C384.376 378.638 385.262 377.9 386.045 377.247C387.371 376.135 388.878 374.88 388.962 372.985C389.021 371.66 388.354 370.327 386.931 368.905C386.42 368.42 385.953 367.892 385.534 367.327C385.657 367.294 385.786 367.256 385.903 367.23C387.604 366.79 391.142 365.885 389.745 359.592C389.674 359.263 390.101 358.525 390.476 357.872C391.686 355.764 393.717 352.233 388.956 347.473C387.796 346.343 387.09 344.827 386.97 343.212C386.692 340.301 387.843 336.473 390.237 331.196C392.604 325.984 396.182 319.361 400.794 310.819L403.298 306.182C416.934 280.864 389.862 214.538 386.731 207.063C386.552 206.626 386.31 206.219 386.013 205.853L362.356 176.293C361.88 175.693 361.274 175.209 360.584 174.877C359.894 174.546 359.137 174.375 358.371 174.379L320.418 173.085C319.372 173.086 318.352 173.408 317.494 174.007C316.637 174.606 315.985 175.453 315.624 176.435L296.852 195.487C296.587 196.223 296.046 196.828 295.344 197.175C292.718 198.487 289.38 208.699 284.192 220.52C283.222 222.732 282.18 225.002 281.068 227.285C277.083 235.472 272.153 243.769 265.937 249.932C247.242 268.473 262.579 287.453 267.839 295.88C268.072 296.254 268.221 296.675 268.277 297.112C268.333 297.55 268.294 297.994 268.162 298.415C265.348 307.307 267.813 316.05 268.938 321.677C269.495 324.425 269.728 326.423 268.874 327.335C268.374 327.865 267.938 328.451 267.573 329.081C267.169 329.782 266.868 330.538 266.681 331.325C266.372 332.629 266.39 333.988 266.733 335.283C267.143 336.792 267.859 338.2 268.835 339.422C268.848 339.441 268.861 339.454 268.874 339.474C271.532 342.914 266.771 348.385 267.612 353.507C267.667 353.872 267.754 354.231 267.871 354.58C268.997 357.956 268.984 360.077 268.253 361.519C267.347 363.311 265.348 364.074 263.091 364.928C262.961 364.979 262.838 365.025 262.709 365.076C262.198 365.27 261.687 365.464 261.182 365.684C261.173 365.683 261.164 365.686 261.156 365.691L261.15 365.697C261.143 365.697 261.143 365.704 261.137 365.704C260.187 366.098 259.297 366.623 258.491 367.262L258.485 367.269C258.315 367.407 258.153 367.553 257.999 367.708Z" fill="#3F3D56"/>
<path d="M347.225 163.585C336.898 166.13 326.018 165.177 316.291 160.876C315.579 160.559 314.874 160.229 314.182 159.88C308.085 156.833 302.703 152.528 298.391 147.251C294.078 141.973 290.934 135.842 289.164 129.262C287.394 122.681 287.039 115.8 288.123 109.072C289.206 102.344 291.704 95.9225 295.45 90.2297C299.197 84.5368 304.107 79.7022 309.859 76.0445C315.61 72.3868 322.071 69.9889 328.817 69.0089C335.562 68.0289 342.439 68.4891 348.994 70.359C355.549 72.2289 361.633 75.4662 366.845 79.8575C366.845 79.8639 366.845 79.8639 366.858 79.8639C368.173 80.9712 369.427 82.1476 370.617 83.3884L370.623 83.3949C376.474 89.5129 380.612 97.0622 382.621 105.285C384.63 113.507 384.439 122.113 382.069 130.239C379.698 138.365 375.23 145.724 369.114 151.577C362.998 157.43 355.449 161.572 347.225 163.585Z" fill="#9E616A"/>
<path d="M343.034 58.0411L348.887 59.5987L350.875 60.1276L373.15 66.0549C392.893 71.3086 404.106 93.5683 398.194 115.773C409.11 134.692 399.651 152.238 382.46 169.262C359.382 166.354 337.686 166.152 316.036 169.342L316.42 156.593L306.668 170.922C301.101 171.998 295.516 173.309 289.913 174.854C302.647 149.785 312.035 123.891 313.634 102.262L303.434 99.5473L306.405 88.388L299.971 98.626L281.479 93.7052C283.178 87.3229 286.118 81.3377 290.131 76.0913C294.144 70.8449 299.152 66.4401 304.868 63.1284C310.583 59.8167 316.896 57.6629 323.444 56.79C329.993 55.9172 336.649 56.3423 343.034 58.0411Z" fill="#2F2E41"/>
<path d="M384.149 87.8512C396.697 87.8512 406.869 77.6824 406.869 65.1385C406.869 52.5946 396.697 42.4258 384.149 42.4258C371.602 42.4258 361.43 52.5946 361.43 65.1385C361.43 77.6824 371.602 87.8512 384.149 87.8512Z" fill="#2F2E41"/>
<path opacity="0.2" d="M144.156 287.927L146.786 336.326L206.795 383.874L152.518 334.248L144.156 287.927Z" fill="black"/>
<path opacity="0.2" d="M264.138 341.679L217.394 385.271L258.69 340.321L264.138 341.679Z" fill="black"/>
<path opacity="0.2" d="M294.542 141.843C287.983 131.042 285.908 118.106 288.759 105.796C292.365 107.108 295.535 109.397 297.913 112.408C300.29 115.419 301.782 119.032 302.221 122.843C302.659 126.401 302.184 130.013 300.841 133.337C299.498 136.661 297.33 139.588 294.542 141.843Z" fill="black"/>
<path d="M297.048 122.845C297.722 128.35 296.204 133.9 292.822 138.297C289.441 142.695 284.466 145.587 278.97 146.351C277.755 146.517 276.528 146.575 275.303 146.525L247.429 215.564L225.678 184.019L255.482 123.294C256.134 117.758 258.939 112.701 263.291 109.216C267.643 105.731 273.192 104.098 278.739 104.671C283.4 105.174 287.752 107.247 291.079 110.55C294.406 113.853 296.511 118.188 297.048 122.845Z" fill="#9E616A"/>
<path d="M355.701 248.886L341.285 190.627L253.324 238.287L253.431 207.027L270.085 163.477L236.022 152.2L200.337 242.815L194.935 271.026C194.179 274.977 194.448 279.055 195.717 282.872C196.986 286.689 199.212 290.117 202.184 292.829C205.389 295.753 209.34 297.735 213.601 298.556C217.863 299.376 222.268 299.002 226.33 297.477L355.701 248.886Z" fill="#3F3D56"/>
</svg>
