<svg width="88" height="105" viewBox="0 0 88 105" fill="none" xmlns="http://www.w3.org/2000/svg">
<path d="M57.7499 67.0446H30.2499C13.8233 67.0446 0.458252 80.4096 0.458252 96.8362V101.42C0.458252 102.416 1.10221 103.299 2.05096 103.604C2.65138 103.794 17.0247 108.295 43.9999 108.295C70.9751 108.295 85.3485 103.794 85.9489 103.604C86.8976 103.299 87.5416 102.416 87.5416 101.42V96.8362C87.5416 80.4096 74.1766 67.0446 57.7499 67.0446Z" fill="black"/>
<path d="M43.9998 55.2916C58.1967 55.2916 69.2082 39.2775 69.2082 25.5C69.2082 11.601 57.8988 0.291626 43.9998 0.291626C30.1009 0.291626 18.7915 11.601 18.7915 25.5C18.7915 39.2775 29.803 55.2916 43.9998 55.2916Z" fill="black"/>
</svg>
