<svg width="15" height="15" viewBox="0 0 15 15" fill="none" xmlns="http://www.w3.org/2000/svg">
<rect width="15" height="15" rx="1" fill="#0E336A"/>
<path d="M7.49992 8.66665C8.14425 8.66665 8.66659 8.14431 8.66659 7.49998C8.66659 6.85565 8.14425 6.33331 7.49992 6.33331C6.85559 6.33331 6.33325 6.85565 6.33325 7.49998C6.33325 8.14431 6.85559 8.66665 7.49992 8.66665Z" stroke="#ECF4FF" stroke-width="0.5" stroke-linecap="round" stroke-linejoin="round"/>
<path d="M11 7.96667V7.03333L9.98407 6.86393C9.92293 6.625 9.82913 6.40007 9.7064 6.19333L10.3051 5.3552L9.6448 4.69533L8.80667 5.2936C8.59993 5.17087 8.375 5.07707 8.13607 5.01593L7.96667 4H7.03333L6.86393 5.01593C6.625 5.07707 6.40007 5.17087 6.19333 5.2936L5.3552 4.69533L4.69533 5.3552L5.2936 6.19333C5.17087 6.40007 5.07707 6.625 5.01593 6.86393L4 7.03333V7.96667L5.01593 8.13607C5.07707 8.375 5.17087 8.59993 5.2936 8.80667L4.69533 9.6448L5.3552 10.3047L6.19333 9.7064C6.40007 9.82913 6.625 9.92293 6.86393 9.98407L7.03333 11H7.96667L8.13607 9.98407C8.375 9.92293 8.59993 9.82913 8.80667 9.7064L9.6448 10.3051L10.3047 9.64527L9.7064 8.80667C9.82913 8.59993 9.92293 8.375 9.98407 8.13607L11 7.96667Z" stroke="#ECF4FF" stroke-width="0.5" stroke-linecap="round" stroke-linejoin="round"/>
</svg>
